<svg width="99" height="98" viewBox="0 0 99 98" fill="none" xmlns="http://www.w3.org/2000/svg">
<circle cx="49.5" cy="49" r="49" fill="#45CB86"/>
<circle cx="49.5" cy="49" r="43" fill="#CFFDE5"/>
<circle cx="49.5" cy="49" r="35" fill="#DFFEEE"/>
<path d="M69.5 42.7501C69.5 50.344 63.3439 56.5 55.75 56.5C54.8734 56.5 54.0164 56.417 53.1854 56.2602L51.3095 58.3707C51.1335 58.5686 50.9177 58.727 50.6762 58.8355C50.4346 58.9439 50.1728 59 49.908 59H47V62.125C47 63.1605 46.1605 64 45.125 64H42V67.125C42 68.1605 41.1605 69 40.125 69H31.375C30.3395 69 29.5 68.1605 29.5 67.125V61.0266C29.5 60.5294 29.6976 60.0524 30.0491 59.7008L42.6899 47.06C42.2428 45.7042 42 44.2555 42 42.75C42 35.1561 48.156 29.0001 55.7499 29C63.3662 28.9999 69.5 35.1337 69.5 42.7501ZM55.75 39C55.75 41.0711 57.4289 42.75 59.5 42.75C61.5711 42.75 63.25 41.0711 63.25 39C63.25 36.9289 61.5711 35.25 59.5 35.25C57.4289 35.25 55.75 36.9289 55.75 39Z" fill="#0F9D58"/>
</svg>
