<svg width="488" height="488" viewBox="0 0 488 488" fill="none" xmlns="http://www.w3.org/2000/svg">
<path d="M88.8208 400.31C174.011 444.814 312.133 444.816 397.322 400.311C482.512 355.806 482.512 283.651 397.322 239.146C312.132 194.642 174.01 194.642 88.8199 239.145C3.62971 283.65 3.62971 355.807 88.8208 400.31Z" fill="#FAFAFA"/>
<path d="M354.681 323.265C364.787 328.081 381.17 328.081 391.275 323.265C401.381 318.449 401.381 310.64 391.275 305.824C381.17 301.008 364.787 301.008 354.681 305.824C344.576 310.64 344.576 318.449 354.681 323.265Z" fill="#E6E6E6"/>
<path d="M375.431 99.8663L379.136 101.291V93.1299C379.136 86.66 384.296 85.1092 389.899 88.3436C395.503 91.5781 400.044 99.4456 400.044 105.915V107.099C401.316 106.593 402.956 106.789 404.752 107.826C408.784 110.153 412.053 115.814 412.053 120.47V121.008L417.218 123.991C419.872 125.524 422.025 129.252 422.025 132.317C422.025 135.383 419.873 136.625 417.218 135.093L375.432 110.968C372.777 109.435 370.624 105.708 370.624 102.642C370.623 99.5755 372.776 98.333 375.431 99.8663Z" fill="#0F9D58"/>
<path d="M83.2333 353.3L90.078 349.39C90.078 349.39 93.3612 331.298 90.9056 315.747C87.4535 293.882 72.5666 286.34 67.1595 288.514C61.7525 290.687 60.4818 297.164 70.2466 309.798C76.008 317.252 83.4178 333.008 83.2333 353.3Z" fill="#0F9D58"/>
<g opacity="0.1">
<path d="M83.2333 353.3L90.078 349.39C90.078 349.39 93.3612 331.298 90.9056 315.747C87.4535 293.882 72.5666 286.34 67.1595 288.514C61.7525 290.687 60.4818 297.164 70.2466 309.798C76.008 317.252 83.4178 333.008 83.2333 353.3Z" fill="#121212"/>
</g>
<path d="M86.334 346.542C86.3204 346.542 86.3067 346.542 86.293 346.541C85.9182 346.518 85.6313 346.197 85.6528 345.82C87.2378 318.585 82.0347 302.467 68.2585 291.925C67.9598 291.695 67.9023 291.268 68.1306 290.97C68.36 290.67 68.7894 290.615 69.0852 290.842C83.2635 301.693 88.6247 318.159 87.0114 345.9C86.9909 346.261 86.6912 346.542 86.334 346.542Z" fill="#FAFAFA"/>
<path d="M64.2423 364.272C63.1609 364.892 60.9317 363.535 60.0777 362.962C58.6156 361.981 57.4317 360.592 56.6451 359.022C55.7296 357.194 55.4993 355.235 55.7852 353.213C55.9336 352.164 56.2274 351.142 56.5202 350.124C56.8071 349.124 57.095 348.125 57.382 347.125C57.665 346.14 57.952 345.119 57.8212 344.101C57.5586 342.05 55.7384 340.613 54.0841 339.375C52.2541 338.005 50.3489 336.196 50.3587 333.727C50.3665 331.822 51.3532 330.053 52.5332 328.558C53.7132 327.063 55.1147 325.742 56.1815 324.164C56.9496 323.028 57.5489 321.694 57.4239 320.328C57.3468 319.48 56.9945 318.681 56.5885 317.932C55.7169 316.325 54.5672 314.852 53.966 313.125C53.3648 311.399 53.4506 309.251 54.7985 308.015C55.9043 307.001 57.5489 306.859 59.0461 306.958C60.431 307.05 61.7847 307.674 62.9969 308.349C66.9155 310.528 69.1525 315.17 73.3122 316.847C74.9168 317.494 76.6736 317.635 78.3465 318.078C80.0183 318.52 81.7234 319.374 82.4984 320.921C84.0248 323.97 81.1915 327.728 82.2651 330.965C83.2147 333.829 85.9983 334.925 87.5609 337.507C88.245 338.636 88.4022 339.941 88.2919 341.257C88.1055 343.483 87.7795 345.117 86.7108 347.593C85.8275 349.638 83.2333 353.301 83.2333 353.301C83.1679 353.365 64.4082 364.176 64.2423 364.272Z" fill="#0F9D58"/>
<path d="M75.4467 358.477C75.4174 358.477 75.3891 358.475 75.3598 358.471C74.987 358.424 74.7225 358.084 74.7703 357.71C76.7487 342.021 69.2667 320.865 58.0925 310.552C57.8153 310.297 57.7987 309.866 58.0534 309.59C58.3101 309.312 58.7386 309.296 59.0148 309.551C70.6682 320.306 78.1824 341.536 76.1202 357.881C76.0782 358.225 75.7854 358.477 75.4467 358.477Z" fill="#FAFAFA"/>
<path d="M73.4957 338.004C73.3522 338.004 73.2097 337.96 73.0877 337.867C67.1273 333.397 57.624 334.213 57.5303 334.222C57.1555 334.266 56.8246 333.98 56.7905 333.606C56.7563 333.232 57.0315 332.9 57.4063 332.866C57.8192 332.826 67.5313 331.996 73.9046 336.778C74.2062 337.003 74.2677 337.43 74.0413 337.73C73.9076 337.91 73.7026 338.004 73.4957 338.004Z" fill="#FAFAFA"/>
<path d="M72.5461 334.081C72.5373 334.081 72.5285 334.081 72.5198 334.08C72.144 334.065 71.8512 333.749 71.8668 333.373C72.1723 325.524 77.9209 320.937 78.1659 320.745C78.4636 320.517 78.8901 320.567 79.1204 320.861C79.3518 321.157 79.3 321.585 79.0053 321.818C78.9496 321.861 73.5075 326.223 73.2254 333.426C73.2127 333.793 72.9102 334.081 72.5461 334.081Z" fill="#FAFAFA"/>
<path d="M388.032 299.61C388.307 296.189 390.945 290.351 394.853 286.194C398.76 282.038 405.011 280.035 408.867 281.71C412.459 283.27 411.669 288.083 406.93 290.933C402.191 293.783 395.131 297.274 392.714 302.665L388.032 309.142V299.61Z" fill="#0F9D58"/>
<path opacity="0.1" d="M388.032 299.61C388.307 296.189 390.945 290.351 394.853 286.194C398.76 282.038 405.011 280.035 408.867 281.71C412.459 283.27 411.669 288.083 406.93 290.933C402.191 293.783 395.131 297.274 392.714 302.665L388.032 309.142V299.61Z" fill="#121212"/>
<path d="M388.032 305.849C388.012 305.849 387.99 305.848 387.97 305.845C387.713 305.81 387.532 305.574 387.567 305.317C389.275 292.652 402.15 283.836 407.268 282.862C407.524 282.811 407.769 282.982 407.817 283.235C407.866 283.491 407.699 283.736 407.444 283.784C402.67 284.692 390.119 293.408 388.497 305.442C388.466 305.678 388.265 305.849 388.032 305.849Z" fill="#FAFAFA"/>
<path d="M388.544 313.734C389.248 311.855 391.852 308.871 395.863 306.554C400.298 303.992 405.725 303.086 407.132 300.927C408.824 298.334 406.744 295.588 402.383 295.777C398.022 295.965 389.958 301.245 388.031 310.017L388.544 313.734Z" fill="#0F9D58"/>
<path d="M388.233 311.917C388.204 311.917 388.172 311.914 388.141 311.908C387.888 311.857 387.723 311.61 387.773 311.356C389.065 304.862 398.481 298.134 404.566 297.852C404.804 297.854 405.045 298.04 405.057 298.299C405.067 298.557 404.868 298.778 404.609 298.79C398.961 299.051 389.889 305.524 388.693 311.539C388.649 311.763 388.454 311.917 388.233 311.917Z" fill="#FAFAFA"/>
<path d="M222.162 353.208V353.6C222.162 354.227 222.602 354.99 223.146 355.303L281.151 388.793C281.695 389.106 282.575 389.106 283.119 388.793L368.805 339.322C369.349 339.009 369.789 338.245 369.789 337.619V337.227C369.789 336.599 369.349 335.837 368.805 335.523L310.799 302.033C310.256 301.72 309.375 301.72 308.832 302.033L223.146 351.503C222.603 351.818 222.162 352.58 222.162 353.208Z" fill="#E0E0E0"/>
<path d="M222.162 353.208V353.6C222.162 354.227 222.602 354.99 223.146 355.303L281.151 388.792C281.424 388.95 281.78 389.028 282.135 389.028V381.37L226.776 349.408L223.146 351.503C222.603 351.818 222.162 352.58 222.162 353.208Z" fill="#E6E6E6"/>
<path d="M223.146 352.64L281.152 386.129C281.696 386.442 282.576 386.442 283.12 386.129L368.806 336.658C369.35 336.345 369.35 335.837 368.806 335.522L310.8 302.032C310.257 301.719 309.376 301.719 308.833 302.032L223.147 351.502C222.603 351.818 222.603 352.326 223.146 352.64Z" fill="#FAFAFA"/>
<path d="M297.053 365.959L257.993 343.408C257.314 343.015 257.279 342.399 257.917 342.031C258.554 341.663 259.621 341.683 260.299 342.075L299.36 364.627C300.039 365.019 300.073 365.635 299.436 366.002C298.799 366.371 297.733 366.351 297.053 365.959Z" fill="#EBEBEB"/>
<path d="M269.324 368.64L250.06 357.518C249.381 357.125 249.347 356.509 249.984 356.141C250.621 355.773 251.688 355.793 252.366 356.185L271.631 367.308C272.31 367.7 272.344 368.316 271.707 368.684C271.069 369.052 270.003 369.032 269.324 368.64Z" fill="#E0E0E0"/>
<path d="M274.855 365.682L261.303 357.857C260.826 357.581 260.802 357.148 261.25 356.89C261.698 356.631 262.448 356.645 262.926 356.921L276.477 364.746C276.955 365.022 276.979 365.455 276.531 365.714C276.083 365.972 275.333 365.957 274.855 365.682Z" fill="#EBEBEB"/>
<path d="M303.985 361.971L264.925 339.42C264.245 339.027 264.211 338.411 264.848 338.044C265.486 337.676 266.552 337.696 267.231 338.088L306.291 360.64C306.971 361.032 307.005 361.648 306.367 362.016C305.731 362.382 304.664 362.362 303.985 361.971Z" fill="#EBEBEB"/>
<path d="M310.917 357.982L271.855 335.431C271.176 335.038 271.143 334.422 271.779 334.056C272.416 333.688 273.483 333.707 274.161 334.099L313.222 356.651C313.901 357.043 313.935 357.659 313.298 358.027C312.663 358.394 311.596 358.375 310.917 357.982Z" fill="#EBEBEB"/>
<path d="M317.848 353.994L297.22 342.053C296.541 341.661 296.507 341.045 297.144 340.677C297.781 340.309 298.848 340.328 299.528 340.721L320.155 352.662C320.835 353.054 320.869 353.67 320.231 354.038C319.594 354.406 318.527 354.387 317.848 353.994Z" fill="#EBEBEB"/>
<path d="M337.416 342.658L298.354 320.106C297.675 319.714 297.642 319.098 298.278 318.73C298.916 318.362 299.982 318.382 300.661 318.774L339.721 341.326C340.401 341.718 340.435 342.334 339.797 342.702C339.162 343.069 338.095 343.049 337.416 342.658Z" fill="#EBEBEB"/>
<path d="M344.347 338.669L305.287 316.118C304.608 315.725 304.573 315.109 305.211 314.742C305.848 314.374 306.915 314.394 307.593 314.786L346.654 337.338C347.333 337.73 347.367 338.346 346.73 338.713C346.094 339.081 345.027 339.061 344.347 338.669Z" fill="#EBEBEB"/>
<path d="M330.484 346.646L291.423 324.095C290.744 323.702 290.709 323.086 291.347 322.719C291.984 322.351 293.051 322.371 293.729 322.763L332.79 345.315C333.469 345.707 333.503 346.323 332.866 346.691C332.23 347.058 331.164 347.038 330.484 346.646Z" fill="#EBEBEB"/>
<path d="M351.279 334.681L312.217 312.13C311.538 311.737 311.505 311.121 312.141 310.754C312.779 310.387 313.845 310.406 314.524 310.798L353.584 333.35C354.264 333.742 354.298 334.358 353.66 334.726C353.025 335.093 351.958 335.073 351.279 334.681Z" fill="#EBEBEB"/>
<path d="M284.46 369.353C281.912 367.882 277.781 367.882 275.233 369.353C272.685 370.823 272.685 373.209 275.233 374.68C277.781 376.15 281.912 376.15 284.459 374.68C287.007 373.209 287.008 370.823 284.46 369.353Z" fill="#E0E0E0"/>
<path d="M223.172 244.269L186.57 265.402C185.213 266.185 183.894 268.074 183.627 269.619L174.53 322.137C174.263 323.682 175.147 325.57 176.505 326.354L200.105 339.98C201.463 340.764 203.665 340.764 205.024 339.98L255.465 310.857C256.823 310.073 257.924 308.245 257.924 306.773C257.924 305.303 256.823 303.474 255.465 302.69L237.316 292.211C235.959 291.428 234.729 289.527 234.57 287.967L230.532 248.336C230.373 246.777 229.212 244.915 227.938 244.18C226.663 243.446 224.53 243.486 223.172 244.269Z" fill="#153132"/>
<path d="M202.564 330.746L202.565 340.567C203.455 340.567 204.344 340.371 205.023 339.98L255.465 310.857C256.824 310.073 257.924 308.245 257.924 306.773C257.924 305.913 257.54 304.935 256.956 304.11H248.698L202.564 330.746Z" fill="#3C5354"/>
<path d="M227.786 246.933L191.184 268.065C189.826 268.849 188.508 270.737 188.24 272.282L179.983 319.957C179.716 321.502 180.6 323.391 181.958 324.174L200.106 334.653C201.464 335.437 203.666 335.437 205.024 334.653L255.466 305.53C256.824 304.746 256.824 303.474 255.466 302.691L237.317 292.212C235.96 291.429 234.73 289.528 234.571 287.968L230.533 248.337C230.373 246.778 229.143 246.149 227.786 246.933Z" fill="#153132"/>
<path d="M255.465 302.691L237.316 292.212C236.647 291.826 236.011 291.167 235.516 290.413L180.33 322.274C180.685 323.069 181.255 323.769 181.956 324.175L200.105 334.653C201.463 335.437 203.665 335.437 205.023 334.653L255.465 305.53C256.824 304.745 256.824 303.475 255.465 302.691Z" fill="#3C5354"/>
<path d="M106.857 348.721L104.514 347.368C102.613 346.27 101.072 343.601 101.072 341.406L101.071 184.219C101.071 182.024 102.614 179.358 104.518 178.265L296.552 68.0145C298.456 66.9214 301.54 66.9253 303.441 68.0224L305.228 69.054C307.13 70.152 308.671 72.8214 308.671 75.0164V232.202C308.671 234.397 307.13 237.067 305.228 238.165L113.742 348.721C111.841 349.819 108.759 349.819 106.857 348.721Z" fill="#3C5354"/>
<path d="M114.911 188.234L102.082 180.828C101.458 181.905 101.072 183.121 101.072 184.219L101.073 341.406C101.073 343.601 102.614 346.27 104.515 347.368L106.858 348.721C108.76 349.819 111.842 349.819 113.743 348.721L114.912 348.046L114.911 188.234Z" fill="#153132"/>
<path d="M110.3 346.734V189.547C110.3 187.352 111.841 184.682 113.742 183.585L305.228 73.0293C307.13 71.9313 308.671 72.8214 308.671 75.0164V232.202C308.671 234.397 307.13 237.067 305.228 238.165L113.742 348.721C111.841 349.819 110.3 348.929 110.3 346.734Z" fill="#3C5354"/>
<path d="M200.216 288.144L218.364 277.666C219.722 276.882 220.823 277.439 220.823 278.91C220.823 280.38 219.722 282.208 218.364 282.993L200.216 293.471C198.858 294.255 197.757 293.699 197.757 292.227C197.757 290.756 198.858 288.928 200.216 288.144Z" fill="#153132"/>
<path d="M119.12 188.391L299.46 83.978C300.546 83.3494 301.426 83.8569 301.426 85.1111V222.107C301.426 223.361 300.546 224.887 299.458 225.515L119.122 329.632C118.036 330.26 117.154 329.751 117.154 328.496V191.801C117.154 190.546 118.035 189.02 119.12 188.391Z" fill="#FAFAFA"/>
<path d="M130.906 229.43L129.069 228.369C127.712 227.585 126.611 225.677 126.611 224.11V197.826C126.611 196.258 127.712 194.352 129.069 193.567L197.964 153.79C199.322 153.006 201.523 153.006 202.881 153.791L204.718 154.852C206.076 155.637 207.176 157.544 207.176 159.111V185.395C207.176 186.963 206.076 188.87 204.718 189.654L135.823 229.431C134.465 230.215 132.264 230.215 130.906 229.43Z" fill="#0F9D58"/>
<path opacity="0.4" d="M130.906 229.43L129.069 228.369C127.712 227.585 126.611 225.677 126.611 224.11V197.826C126.611 196.258 127.712 194.352 129.069 193.567L197.964 153.79C199.322 153.006 201.523 153.006 202.881 153.791L204.718 154.852C206.076 155.637 207.176 157.544 207.176 159.111V185.395C207.176 186.963 206.076 188.87 204.718 189.654L135.823 229.431C134.465 230.215 132.264 230.215 130.906 229.43Z" fill="#0F9D58"/>
<path opacity="0.3" d="M130.906 229.43L129.069 228.369C127.712 227.585 126.611 225.677 126.611 224.11V197.826C126.611 196.258 127.712 194.352 129.069 193.567L197.964 153.79C199.322 153.006 201.523 153.006 202.881 153.791L204.718 154.852C206.076 155.637 207.176 157.544 207.176 159.111V185.395C207.176 186.963 206.076 188.87 204.718 189.654L135.823 229.431C134.465 230.215 132.264 230.215 130.906 229.43Z" fill="#FAFAFA"/>
<path d="M137.977 201.552L127.33 195.404C126.886 196.174 126.611 197.042 126.611 197.825V224.109C126.611 225.677 127.712 227.585 129.069 228.368L130.906 229.429C132.264 230.214 134.465 230.214 135.823 229.43L137.977 228.187V201.552Z" fill="#0F9D58"/>
<path opacity="0.2" d="M137.977 201.552L127.33 195.404C126.886 196.174 126.611 197.042 126.611 197.825V224.109C126.611 225.677 127.712 227.585 129.069 228.368L130.906 229.429C132.264 230.214 134.465 230.214 135.823 229.43L137.977 228.187V201.552Z" fill="#121212"/>
<path d="M133.365 201.727V228.011C133.365 229.579 134.465 230.215 135.823 229.431L204.718 189.654C206.076 188.871 207.176 186.963 207.176 185.395V159.111C207.176 157.543 206.076 156.908 204.718 157.691L135.823 197.468C134.465 198.253 133.365 200.159 133.365 201.727Z" fill="#0F9D58"/>
<path d="M162.792 187.222L186.624 173.463C187.589 172.905 188.372 173.16 188.372 174.032C188.372 174.903 187.589 176.061 186.624 176.618L162.792 190.378C161.827 190.935 161.044 190.68 161.044 189.809C161.044 188.938 161.827 187.779 162.792 187.222Z" fill="#FAFAFA"/>
<path d="M162.52 195.374L201.088 173.105C201.903 172.635 202.564 172.85 202.564 173.585C202.564 174.321 201.903 175.298 201.088 175.769L162.52 198.036C161.705 198.507 161.044 198.292 161.044 197.556C161.044 196.82 161.705 195.844 162.52 195.374Z" fill="#FAFAFA"/>
<path d="M162.52 200.701L201.088 178.433C201.903 177.963 202.564 178.178 202.564 178.913C202.564 179.649 201.903 180.626 201.088 181.097L162.52 203.364C161.705 203.835 161.044 203.62 161.044 202.884C161.044 202.148 161.705 201.171 162.52 200.701Z" fill="#FAFAFA"/>
<path d="M162.52 206.028L201.088 183.759C201.903 183.289 202.564 183.504 202.564 184.24C202.564 184.975 201.903 185.952 201.088 186.423L162.52 208.69C161.705 209.161 161.044 208.946 161.044 208.21C161.044 207.475 161.705 206.498 162.52 206.028Z" fill="#FAFAFA"/>
<path d="M139.945 200.416L154.464 192.033C155.55 191.405 156.431 191.914 156.431 193.169V209.934C156.431 211.188 155.551 212.713 154.464 213.341L139.945 221.724C138.858 222.351 137.977 221.843 137.977 220.588V203.823C137.978 202.569 138.858 201.043 139.945 200.416Z" fill="#0F9D58"/>
<path opacity="0.3" d="M139.945 200.416L154.464 192.033C155.55 191.405 156.431 191.914 156.431 193.169V209.934C156.431 211.188 155.551 212.713 154.464 213.341L139.945 221.724C138.858 222.351 137.977 221.843 137.977 220.588V203.823C137.978 202.569 138.858 201.043 139.945 200.416Z" fill="#FAFAFA"/>
<path d="M141.191 207.764C140.874 207.764 140.575 207.687 140.307 207.532C139.688 207.174 139.347 206.469 139.347 205.546C139.347 203.87 140.485 201.898 141.939 201.06C142.738 200.598 143.518 200.542 144.138 200.899C144.756 201.256 145.097 201.962 145.097 202.884C145.097 204.562 143.959 206.532 142.506 207.371C142.052 207.632 141.606 207.764 141.191 207.764ZM142.506 202.044C141.409 202.677 140.482 204.282 140.482 205.546C140.482 206.039 140.626 206.404 140.874 206.548C141.125 206.691 141.511 206.633 141.938 206.387C143.035 205.754 143.961 204.15 143.961 202.884C143.961 202.391 143.817 202.026 143.57 201.883C143.32 201.739 142.932 201.798 142.506 202.044Z" fill="#FAFAFA"/>
<path d="M156.431 204.025L153.665 201.084C153.388 200.789 152.983 200.654 152.586 200.72C152.188 200.787 151.851 201.045 151.685 201.413L147.699 210.206L145.767 208.456C145.504 208.217 145.148 208.107 144.798 208.154C144.446 208.201 144.133 208.399 143.939 208.698L137.978 217.963V220.072L145.004 209.297L151.413 215.102L152.446 214.505L148.582 211.005L152.719 201.881L152.838 201.861L156.431 205.681V204.025Z" fill="#FAFAFA"/>
<path d="M130.906 273.35L129.069 272.289C127.712 271.505 126.611 269.598 126.611 268.03V241.746C126.611 240.178 127.712 238.272 129.069 237.487L197.964 197.71C199.322 196.927 201.523 196.927 202.881 197.711L204.718 198.772C206.076 199.557 207.176 201.464 207.176 203.031V229.315C207.176 230.883 206.076 232.79 204.718 233.574L135.823 273.351C134.465 274.135 132.264 274.134 130.906 273.35Z" fill="#0F9D58"/>
<path opacity="0.4" d="M130.906 273.35L129.069 272.289C127.712 271.505 126.611 269.598 126.611 268.03V241.746C126.611 240.178 127.712 238.272 129.069 237.487L197.964 197.71C199.322 196.927 201.523 196.927 202.881 197.711L204.718 198.772C206.076 199.557 207.176 201.464 207.176 203.031V229.315C207.176 230.883 206.076 232.79 204.718 233.574L135.823 273.351C134.465 274.135 132.264 274.134 130.906 273.35Z" fill="#0F9D58"/>
<path opacity="0.3" d="M130.906 273.35L129.069 272.289C127.712 271.505 126.611 269.598 126.611 268.03V241.746C126.611 240.178 127.712 238.272 129.069 237.487L197.964 197.71C199.322 196.927 201.523 196.927 202.881 197.711L204.718 198.772C206.076 199.557 207.176 201.464 207.176 203.031V229.315C207.176 230.883 206.076 232.79 204.718 233.574L135.823 273.351C134.465 274.135 132.264 274.134 130.906 273.35Z" fill="#FAFAFA"/>
<path d="M137.977 245.472L127.33 239.324C126.886 240.094 126.611 240.962 126.611 241.745V268.029C126.611 269.598 127.712 271.505 129.069 272.288L130.906 273.349C132.264 274.134 134.465 274.134 135.823 273.35L137.977 272.106V245.472Z" fill="#0F9D58"/>
<path opacity="0.2" d="M137.977 245.472L127.33 239.324C126.886 240.094 126.611 240.962 126.611 241.745V268.029C126.611 269.598 127.712 271.505 129.069 272.288L130.906 273.349C132.264 274.134 134.465 274.134 135.823 273.35L137.977 272.106V245.472Z" fill="#121212"/>
<path d="M133.365 245.647V271.931C133.365 273.5 134.465 274.135 135.823 273.351L204.718 233.574C206.076 232.791 207.176 230.883 207.176 229.315V203.031C207.176 201.463 206.076 200.828 204.718 201.611L135.823 241.388C134.465 242.173 133.365 244.079 133.365 245.647Z" fill="#0F9D58"/>
<path d="M162.792 231.142L186.624 217.382C187.589 216.825 188.372 217.08 188.372 217.951C188.372 218.823 187.589 219.981 186.624 220.538L162.792 234.297C161.827 234.855 161.044 234.6 161.044 233.728C161.044 232.858 161.827 231.699 162.792 231.142Z" fill="#FAFAFA"/>
<path d="M162.52 239.294L201.088 217.025C201.903 216.555 202.564 216.77 202.564 217.505C202.564 218.241 201.903 219.218 201.088 219.689L162.52 241.956C161.705 242.427 161.044 242.212 161.044 241.476C161.044 240.74 161.705 239.764 162.52 239.294Z" fill="#FAFAFA"/>
<path d="M162.52 244.621L201.088 222.353C201.903 221.883 202.564 222.098 202.564 222.833C202.564 223.569 201.903 224.546 201.088 225.017L162.52 247.284C161.705 247.755 161.044 247.54 161.044 246.804C161.044 246.068 161.705 245.091 162.52 244.621Z" fill="#FAFAFA"/>
<path d="M162.52 249.948L201.088 227.679C201.903 227.209 202.564 227.424 202.564 228.159C202.564 228.895 201.903 229.872 201.088 230.343L162.52 252.61C161.705 253.081 161.044 252.866 161.044 252.13C161.044 251.395 161.705 250.418 162.52 249.948Z" fill="#FAFAFA"/>
<path d="M139.945 244.336L154.464 235.953C155.55 235.325 156.431 235.834 156.431 237.089V253.854C156.431 255.108 155.551 256.633 154.464 257.261L139.945 265.644C138.858 266.271 137.977 265.763 137.977 264.508V247.743C137.978 246.489 138.858 244.963 139.945 244.336Z" fill="#0F9D58"/>
<path opacity="0.3" d="M139.945 244.336L154.464 235.953C155.55 235.325 156.431 235.834 156.431 237.089V253.854C156.431 255.108 155.551 256.633 154.464 257.261L139.945 265.644C138.858 266.271 137.977 265.763 137.977 264.508V247.743C137.978 246.489 138.858 244.963 139.945 244.336Z" fill="#FAFAFA"/>
<path d="M141.191 251.684C140.874 251.684 140.575 251.607 140.307 251.453C139.688 251.095 139.347 250.39 139.347 249.467C139.347 247.791 140.485 245.819 141.939 244.981C142.738 244.519 143.518 244.463 144.138 244.82C144.756 245.177 145.097 245.883 145.097 246.805C145.097 248.483 143.959 250.453 142.506 251.292C142.052 251.552 141.606 251.684 141.191 251.684ZM142.506 245.964C141.409 246.597 140.482 248.202 140.482 249.466C140.482 249.959 140.626 250.324 140.874 250.468C141.125 250.611 141.511 250.553 141.938 250.307C143.035 249.674 143.961 248.07 143.961 246.804C143.961 246.311 143.817 245.946 143.57 245.803C143.32 245.659 142.932 245.718 142.506 245.964Z" fill="#FAFAFA"/>
<path d="M156.431 247.945L153.665 245.004C153.388 244.71 152.983 244.574 152.586 244.64C152.188 244.707 151.851 244.965 151.685 245.333L147.699 254.126L145.767 252.376C145.504 252.137 145.148 252.028 144.798 252.074C144.446 252.121 144.133 252.319 143.939 252.618L137.978 261.883V263.992L145.004 253.217L151.413 259.023L152.446 258.426L148.582 254.926L152.719 245.802L152.838 245.782L156.431 249.602V247.945Z" fill="#FAFAFA"/>
<path d="M130.906 316.294L129.069 315.233C127.712 314.449 126.611 312.541 126.611 310.974V284.69C126.611 283.122 127.712 281.216 129.069 280.431L197.964 240.654C199.322 239.87 201.523 239.87 202.881 240.655L204.718 241.716C206.076 242.501 207.176 244.408 207.176 245.975V272.259C207.176 273.827 206.076 275.734 204.718 276.518L135.823 316.295C134.465 317.079 132.264 317.078 130.906 316.294Z" fill="#0F9D58"/>
<path opacity="0.4" d="M130.906 316.294L129.069 315.233C127.712 314.449 126.611 312.541 126.611 310.974V284.69C126.611 283.122 127.712 281.216 129.069 280.431L197.964 240.654C199.322 239.87 201.523 239.87 202.881 240.655L204.718 241.716C206.076 242.501 207.176 244.408 207.176 245.975V272.259C207.176 273.827 206.076 275.734 204.718 276.518L135.823 316.295C134.465 317.079 132.264 317.078 130.906 316.294Z" fill="#0F9D58"/>
<path opacity="0.3" d="M130.906 316.294L129.069 315.233C127.712 314.449 126.611 312.541 126.611 310.974V284.69C126.611 283.122 127.712 281.216 129.069 280.431L197.964 240.654C199.322 239.87 201.523 239.87 202.881 240.655L204.718 241.716C206.076 242.501 207.176 244.408 207.176 245.975V272.259C207.176 273.827 206.076 275.734 204.718 276.518L135.823 316.295C134.465 317.079 132.264 317.078 130.906 316.294Z" fill="#FAFAFA"/>
<path d="M137.977 288.416L127.33 282.268C126.886 283.038 126.611 283.906 126.611 284.689V310.973C126.611 312.541 127.712 314.449 129.069 315.232L130.906 316.293C132.264 317.078 134.465 317.078 135.823 316.294L137.977 315.05V288.416Z" fill="#0F9D58"/>
<path opacity="0.2" d="M137.977 288.416L127.33 282.268C126.886 283.038 126.611 283.906 126.611 284.689V310.973C126.611 312.541 127.712 314.449 129.069 315.232L130.906 316.293C132.264 317.078 134.465 317.078 135.823 316.294L137.977 315.05V288.416Z" fill="#121212"/>
<path d="M133.365 288.591V314.875C133.365 316.444 134.465 317.079 135.823 316.295L204.718 276.518C206.076 275.735 207.176 273.827 207.176 272.259V245.975C207.176 244.407 206.076 243.772 204.718 244.555L135.823 284.332C134.465 285.117 133.365 287.024 133.365 288.591Z" fill="#0F9D58"/>
<path d="M162.792 274.086L186.624 260.327C187.589 259.769 188.372 260.024 188.372 260.896C188.372 261.767 187.589 262.925 186.624 263.483L162.792 277.243C161.827 277.8 161.044 277.545 161.044 276.674C161.044 275.802 161.827 274.643 162.792 274.086Z" fill="#FAFAFA"/>
<path d="M162.52 282.238L201.088 259.97C201.903 259.5 202.564 259.715 202.564 260.45C202.564 261.186 201.903 262.163 201.088 262.634L162.52 284.901C161.705 285.372 161.044 285.157 161.044 284.421C161.044 283.685 161.705 282.708 162.52 282.238Z" fill="#FAFAFA"/>
<path d="M162.52 287.565L201.088 265.296C201.903 264.826 202.564 265.041 202.564 265.777C202.564 266.512 201.903 267.489 201.088 267.96L162.52 290.227C161.705 290.698 161.044 290.483 161.044 289.747C161.044 289.012 161.705 288.035 162.52 287.565Z" fill="#FAFAFA"/>
<path d="M162.52 292.892L201.088 270.624C201.903 270.154 202.564 270.369 202.564 271.105C202.564 271.84 201.903 272.817 201.088 273.288L162.52 295.555C161.705 296.026 161.044 295.811 161.044 295.075C161.044 294.339 161.705 293.362 162.52 292.892Z" fill="#FAFAFA"/>
<path d="M139.945 287.28L154.464 278.897C155.55 278.269 156.431 278.778 156.431 280.033V296.798C156.431 298.052 155.551 299.577 154.464 300.205L139.945 308.588C138.858 309.215 137.977 308.707 137.977 307.452V290.687C137.978 289.433 138.858 287.907 139.945 287.28Z" fill="#0F9D58"/>
<path opacity="0.3" d="M139.945 287.28L154.464 278.897C155.55 278.269 156.431 278.778 156.431 280.033V296.798C156.431 298.052 155.551 299.577 154.464 300.205L139.945 308.588C138.858 309.215 137.977 308.707 137.977 307.452V290.687C137.978 289.433 138.858 287.907 139.945 287.28Z" fill="#FAFAFA"/>
<path d="M141.191 294.628C140.874 294.628 140.575 294.551 140.307 294.397C139.688 294.039 139.347 293.334 139.347 292.411C139.347 290.735 140.485 288.763 141.939 287.925C142.738 287.463 143.518 287.406 144.138 287.764C144.756 288.121 145.097 288.827 145.097 289.749C145.097 291.427 143.959 293.397 142.506 294.236C142.052 294.496 141.606 294.628 141.191 294.628ZM142.506 288.909C141.409 289.542 140.482 291.147 140.482 292.411C140.482 292.904 140.626 293.269 140.874 293.413C141.125 293.556 141.511 293.498 141.938 293.252C143.035 292.619 143.961 291.015 143.961 289.749C143.961 289.256 143.817 288.891 143.57 288.748C143.32 288.603 142.932 288.662 142.506 288.909Z" fill="#FAFAFA"/>
<path d="M156.431 290.889L153.665 287.948C153.388 287.653 152.983 287.518 152.586 287.584C152.188 287.651 151.851 287.909 151.685 288.277L147.699 297.07L145.767 295.32C145.504 295.081 145.148 294.972 144.798 295.018C144.446 295.065 144.133 295.263 143.939 295.562L137.978 304.827V306.936L145.004 296.161L151.413 301.967L152.446 301.37L148.582 297.87L152.719 288.746L152.838 288.726L156.431 292.546V290.889Z" fill="#FAFAFA"/>
<path d="M218.559 264.048L216.722 262.987C215.364 262.202 214.263 260.295 214.263 258.728V147.222C214.263 145.653 215.364 143.747 216.722 142.962L322.516 81.8717C323.874 81.088 326.076 81.088 327.433 81.8727L329.27 82.9336C330.628 83.7183 331.729 85.6254 331.729 87.1929V198.699C331.729 200.267 330.628 202.174 329.27 202.958L223.476 264.049C222.118 264.833 219.916 264.833 218.559 264.048Z" fill="#0F9D58"/>
<path d="M225.631 150.948L214.983 144.8C214.539 145.57 214.264 146.438 214.264 147.222V258.728C214.264 260.296 215.365 262.203 216.723 262.987L218.56 264.048C219.917 264.833 222.119 264.833 223.477 264.049L225.631 262.805V150.948Z" fill="#E6E6E6"/>
<path d="M225.631 150.948L214.982 144.8C214.538 145.57 214.263 146.438 214.263 147.222V152.372L221.017 156.27L225.631 150.948Z" fill="#0F9D58"/>
<g opacity="0.2">
<path d="M225.631 150.948L214.982 144.8C214.538 145.57 214.263 146.438 214.263 147.222V152.372L221.017 156.27L225.631 150.948Z" fill="#121212"/>
</g>
<path d="M221.017 151.124V262.63C221.017 264.198 222.118 264.834 223.476 264.05L329.27 202.959C330.628 202.175 331.729 200.268 331.729 198.7V87.1939C331.729 85.6254 330.628 84.9901 329.27 85.7748L223.476 146.866C222.118 147.648 221.017 149.555 221.017 151.124Z" fill="#FAFAFA"/>
<path d="M232.55 155.331C236.372 153.125 239.47 154.914 239.47 159.326C239.47 163.74 236.372 169.106 232.55 171.312C228.728 173.519 225.631 171.73 225.631 167.318C225.63 162.904 228.728 157.538 232.55 155.331Z" fill="#0F9D58"/>
<path d="M246.542 149.76L269.305 136.619C270.662 135.835 271.763 136.391 271.763 137.863C271.763 139.334 270.662 141.162 269.305 141.946L246.542 155.087C245.185 155.871 244.084 155.315 244.084 153.844C244.084 152.373 245.185 150.545 246.542 149.76Z" fill="#0F9D58"/>
<path d="M245.313 159.217L261.307 149.983C261.987 149.591 262.537 149.87 262.537 150.605C262.537 151.341 261.987 152.254 261.307 152.646L245.313 161.88C244.633 162.273 244.083 161.994 244.083 161.259C244.084 160.524 244.634 159.609 245.313 159.217Z" fill="#0F9D58"/>
<path d="M228.089 179.214L324.664 123.457C326.022 122.673 327.123 123.309 327.123 124.876V193.776C327.123 195.344 326.022 197.251 324.664 198.035L228.042 253.82C226.685 254.604 225.63 253.969 225.631 252.4L225.629 183.473C225.63 181.905 226.731 179.999 228.089 179.214Z" fill="#0F9D58"/>
<path d="M251.199 224.742C250.866 224.742 250.555 224.662 250.275 224.5C249.627 224.126 249.271 223.386 249.271 222.416V185.478C249.271 183.702 250.476 181.615 252.014 180.727L300.127 152.95C300.966 152.465 301.786 152.402 302.433 152.778C303.081 153.152 303.438 153.892 303.438 154.862V191.8C303.438 193.576 302.234 195.663 300.696 196.551L252.583 224.328C252.106 224.602 251.635 224.742 251.199 224.742ZM301.509 153.674C301.273 153.674 300.992 153.762 300.695 153.934L252.582 181.711C251.403 182.391 250.407 184.117 250.407 185.478V222.416C250.407 222.955 250.566 223.356 250.844 223.516C251.12 223.675 251.546 223.612 252.015 223.343L300.128 195.566C301.307 194.886 302.303 193.16 302.303 191.799V154.862C302.303 154.323 302.144 153.922 301.866 153.762C301.764 153.703 301.644 153.674 301.509 153.674Z" fill="#FAFAFA"/>
<path d="M257.816 193.721C257.279 193.721 256.779 193.594 256.332 193.336C255.279 192.727 254.697 191.492 254.697 189.857C254.697 186.686 256.847 182.96 259.593 181.375C261.009 180.558 262.368 180.444 263.424 181.052C264.478 181.66 265.059 182.896 265.059 184.53C265.059 187.701 262.908 191.427 260.162 193.013C259.346 193.483 258.548 193.721 257.816 193.721ZM260.162 182.359C257.775 183.737 255.833 187.101 255.833 189.857C255.833 191.069 256.213 191.955 256.9 192.352C257.59 192.749 258.544 192.635 259.593 192.029C261.982 190.651 263.923 187.287 263.923 184.53C263.923 183.318 263.543 182.433 262.856 182.036C262.167 181.638 261.21 181.754 260.162 182.359Z" fill="#FAFAFA"/>
<path d="M250.313 218.841L249.366 218.213L266.09 192.971C266.588 192.221 267.601 192.016 268.35 192.511L285.917 204.133L285.29 205.081L267.723 193.459C267.496 193.308 267.187 193.371 267.038 193.598L250.313 218.841Z" fill="#FAFAFA"/>
<path d="M276.445 198.483L275.443 197.948L288.545 173.384C288.801 172.903 289.277 172.584 289.816 172.529C290.348 172.474 290.888 172.689 291.236 173.106L303.306 187.576L302.434 188.303L290.365 173.833C290.257 173.705 290.095 173.638 289.933 173.658C289.767 173.675 289.626 173.769 289.548 173.917L276.445 198.483Z" fill="#FAFAFA"/>
<path d="M331.729 87.1939C331.729 85.6254 330.628 84.9901 329.27 85.7748L223.476 146.866C222.118 147.649 221.017 149.556 221.017 151.125V156.271L331.729 92.3511V87.1939Z" fill="#0F9D58"/>
<path opacity="0.1" d="M331.729 87.1939C331.729 85.6254 330.628 84.9901 329.27 85.7748L223.476 146.866C222.118 147.649 221.017 149.556 221.017 151.125V156.271L331.729 92.3511V87.1939Z" fill="#121212"/>
<path d="M364.506 207.298C361.649 210.712 356.438 217.229 353.76 220.59C352.355 222.354 351.556 224.542 351.588 226.797C351.613 228.471 352.067 229.869 353.703 229.155C354.885 228.64 355.637 228.027 357.362 226.326C358.914 224.795 364.41 218.189 364.41 218.189C364.41 218.189 368.623 207.1 370.942 206.397C373.261 205.693 374.869 205.874 374.869 205.874C372.072 204.918 368.132 202.965 364.506 207.298Z" fill="#F28F8F"/>
<path d="M376.253 203.651C373.392 201.498 368.542 202.059 365.861 205.303C363.898 207.678 359.224 213.475 359.224 213.475C359.224 213.475 360.563 217.198 365.245 218.867L376.253 203.651Z" fill="#0F9D58"/>
<path opacity="0.1" d="M376.253 203.651C373.392 201.498 368.542 202.059 365.861 205.303C363.898 207.678 359.224 213.475 359.224 213.475C359.224 213.475 360.563 217.198 365.245 218.867L376.253 203.651Z" fill="#121212"/>
<path d="M332.213 291.984L315.138 311.476C314.641 312.043 313.709 311.656 313.758 310.905L315.462 284.897L332.213 291.984Z" fill="#3C5354"/>
<path d="M313.758 310.904C313.708 311.655 314.641 312.042 315.138 311.475L318.472 307.669C316.845 307.837 315.26 307.083 314.366 305.712L314.123 305.34L313.758 310.904Z" fill="#153132"/>
<path d="M357.237 183.884L356.321 186.101L355.206 188.771L315.461 284.894C316.405 287.656 318.616 289.77 321.178 291.135C325.073 293.228 329.793 293.605 332.202 291.978L371.654 196.564L373.767 191.452C372.214 194.686 355.725 187.15 357.237 183.884Z" fill="#3C5354"/>
<path d="M353.721 192.311L351.683 197.264C351.045 198.68 353.724 200.863 357.123 202.637C361.632 205.005 367.401 206.652 368.25 204.777L369.743 201.122L370.283 199.815C369.434 201.689 363.655 200.047 359.146 197.679C355.891 195.975 353.29 193.88 353.67 192.472L353.676 192.457C353.678 192.406 353.694 192.361 353.721 192.311Z" fill="#3C5354"/>
<path d="M353.223 193.552C351.734 196.838 368.298 204.344 369.787 201.058L371.842 196.106C370.353 199.392 353.791 191.886 355.281 188.599L353.223 193.552Z" fill="#3C5354"/>
<path d="M357.237 183.884L355.205 188.772C353.72 191.988 369.638 199.391 371.653 196.564C371.695 196.521 371.727 196.455 371.759 196.391L373.766 191.452C372.214 194.686 355.725 187.15 357.237 183.884Z" fill="#3C5354"/>
<path d="M365.84 163.139L357.236 183.884C356.588 185.28 359.228 187.456 362.592 189.235C367.095 191.618 372.883 193.307 373.767 191.452C373.777 191.447 373.777 191.447 373.783 191.433L382.054 171.476C384.366 166.981 376.392 161.326 370.66 160.993C368.516 160.854 366.704 161.457 365.84 163.139Z" fill="#153132"/>
<path d="M372.207 193.666C376.045 193.666 379.155 190.555 379.155 186.718C379.155 182.88 376.045 179.769 372.207 179.769C368.37 179.769 365.259 182.88 365.259 186.718C365.259 190.555 368.37 193.666 372.207 193.666Z" fill="#153132"/>
<path d="M388.845 304.281H383.952V312.659H388.845V304.281Z" fill="#FFA8A7"/>
<path d="M371.876 303.834L366.986 304.001L366.741 295.136L371.631 294.968L371.876 303.834Z" fill="#FFA8A7"/>
<path d="M388.524 237.868C388.524 242.541 389.128 270.861 389.128 270.861C389.242 272.206 390.503 274.685 390.23 279.85C389.859 286.867 389.253 305.106 389.253 305.106C389.253 305.106 386.959 307.381 383.718 305.106C383.718 305.106 379.287 279.875 378.41 272.922C377.645 266.854 376.346 250.368 376.346 250.368L371.811 269.773C371.811 269.773 372.609 274.335 372.784 277.554C372.96 280.774 371.954 297.625 371.954 297.625C371.954 297.625 369.466 299.345 366.628 297.828C366.628 297.828 362.697 272.403 362.193 269.495C361.688 266.588 365.634 237.868 365.634 237.868H388.524Z" fill="#3C5354"/>
<path d="M383.822 204.06C385.954 204.439 387.654 206.055 388.122 208.17C388.354 209.22 388.524 210.472 388.524 211.886V221.475V237.869C385.092 241.602 373.128 243.341 365.634 237.869C365.634 237.869 365.781 214.919 366.343 211.149C367.318 204.599 370.453 202.262 373.603 202.506L381.157 203.587L383.822 204.06Z" fill="#0F9D58"/>
<path d="M384.217 191.658C384.217 191.658 383.092 196.948 382.64 197.817C382.188 198.686 381.255 198.932 381.255 198.932L381.334 195.212L384.217 191.658Z" fill="#153132"/>
<path d="M382.805 184.08C382.805 184.08 384.017 183.872 384.963 184.839C385.889 185.786 385.372 188.752 384.218 191.658L382.097 191.901L382.805 184.08Z" fill="#153132"/>
<path d="M381.461 191.903C381.886 192.157 382.492 191.34 383.018 190.791C383.542 190.243 385.254 189.493 386.108 191.292C386.978 193.126 385.354 195.549 384.006 195.972C381.683 196.701 381.335 195.212 381.335 195.212L381.157 203.59C381.157 203.59 379.637 207.311 375.518 207.869C371.4 208.428 372.247 205.032 373.6 203.368L373.607 200.818C373.607 200.818 371.503 201.137 370.476 200.979C368.768 200.714 367.693 199.366 367.175 197.518C366.343 194.548 366.026 192.15 366.733 186.31C367.507 179.908 374.953 179.841 378.974 182.371C382.994 184.903 381.461 191.903 381.461 191.903Z" fill="#FFA8A7"/>
<path d="M381.461 192.618C381.675 192.622 382.488 191.274 383.018 190.791C383.751 190.124 382.805 184.08 382.805 184.08C382.805 184.08 383.509 182.578 382.097 181.024C381.092 179.918 379.413 179.795 376.546 179.344C375.041 179.108 372.761 178.686 371.259 178.407C369.465 178.073 367.98 177.721 366.713 178.821C365.728 179.678 365.303 181.191 365.834 182.384C365.959 182.664 366.139 182.917 366.344 183.144C366.707 183.548 367.118 183.866 367.635 184.034C367.635 184.034 368.418 184.727 371.138 185.059C373.859 185.391 378.097 184.996 378.676 184.917C379.465 184.809 379.634 185.574 380.059 187.662C380.432 189.496 380.742 192.605 381.461 192.618Z" fill="#153132"/>
<path d="M382.8 184.55L385.371 183.17C385.006 182.433 384.134 182.145 383.424 182.526C382.715 182.907 382.435 183.813 382.8 184.55Z" fill="#153132"/>
<path d="M373.606 200.819C373.606 200.819 377.419 200.051 378.752 199.342C379.644 198.868 380.379 198.046 380.595 197.519C380.595 197.519 380.345 198.65 379.548 199.67C378.573 200.916 373.606 201.834 373.606 201.834V200.819Z" fill="#F28F8F"/>
<path d="M374.522 190.95C374.522 191.388 374.865 191.743 375.287 191.741C375.708 191.74 376.051 191.384 376.051 190.945C376.051 190.506 375.709 190.152 375.287 190.153C374.865 190.155 374.522 190.511 374.522 190.95Z" fill="#153132"/>
<path d="M375.333 188.064L376.968 188.966C377.209 188.497 377.039 187.914 376.588 187.665C376.136 187.416 375.575 187.595 375.333 188.064Z" fill="#153132"/>
<path d="M373.952 196.228L372.207 196.883C372.38 197.382 372.91 197.641 373.392 197.46C373.873 197.28 374.124 196.728 373.952 196.228Z" fill="#F28F8F"/>
<path d="M367.709 188.701L369.199 187.553C368.895 187.127 368.315 187.038 367.903 187.354C367.492 187.671 367.404 188.274 367.709 188.701Z" fill="#153132"/>
<path d="M368.168 190.732C368.168 191.17 368.51 191.525 368.932 191.523C369.354 191.522 369.696 191.166 369.696 190.727C369.696 190.289 369.354 189.934 368.932 189.935C368.509 189.937 368.168 190.294 368.168 190.732Z" fill="#153132"/>
<path d="M372.061 190.008L371.81 194.603L369.41 193.785L372.061 190.008Z" fill="#F28F8F"/>
<path d="M383.952 310.243V309.543C383.483 309.747 382.395 313.898 380.454 315.67C378.91 317.078 376.804 318.704 376.268 320.273C375.711 321.906 379.201 322.807 380.644 322.552C382.32 322.256 385.224 321.076 385.953 319.982C386.682 318.888 387.024 317.274 387.616 316.473C388.209 315.672 389.574 314.777 389.895 313.848C390.071 313.339 389.862 312.222 389.615 311.28C389.389 310.414 389.143 309.462 388.847 309.544C388.846 309.65 388.847 310.078 388.847 310.078C388.492 310.471 387.509 310.863 386.4 310.905C385.682 310.931 383.946 310.789 383.952 310.243Z" fill="#153132"/>
<path d="M366.934 302.493C366.68 302.501 366.473 302.86 365.912 303.467C365.235 304.2 364.127 304.991 363.033 305.538C361.2 306.455 357.638 307.866 356.025 308.593C355.018 309.046 355.065 310.264 356.106 310.955C357.148 311.648 359.662 312.147 362.681 311.472C364.325 311.104 366.465 309.585 367.82 309.667C369.175 309.749 371.711 309.73 372.711 309.041C373.711 308.352 373.311 306.879 373.028 305.614C372.72 304.233 372.279 302.121 371.821 302.214L371.835 302.649C371.247 303.54 368.252 303.904 366.959 303.248L366.934 302.493Z" fill="#153132"/>
<path d="M376.347 250.369C376.347 250.369 372.435 249.267 369.532 246.461C369.532 246.461 370.847 248.924 374.758 251.215L373.288 263.728L376.347 250.369Z" fill="#153132"/>
<path d="M348.95 232.114C350.028 232.391 351.068 232.304 352.553 232.814C353.86 233.264 354.408 233.426 355.694 233.347C357.089 233.261 360.736 231.533 363.973 229.571C367.791 227.257 371.747 223.043 373.189 221.002C376.117 216.856 379.36 210.321 380.909 207.822C382.459 205.322 383.929 205.059 385.651 205.132C387.674 205.217 388.969 207.07 387.191 210.918C385.413 214.767 381.57 221.224 377.887 225.678C376.102 227.836 372.953 231.039 368.057 234.031C364.637 236.122 361.634 237.158 357.833 238.431C356.797 238.777 356.114 239.292 354.217 240.186C353.452 240.546 352.624 240.966 351.786 241.081C350.724 241.227 349.639 241.254 348.576 241.092C347.238 240.888 345.931 240.374 344.888 239.512C344.313 239.038 343.818 238.454 343.521 237.771C343.223 237.088 343.135 236.301 343.356 235.59C343.401 235.445 343.46 235.3 343.571 235.196C343.77 235.01 344.073 235.007 344.345 235.017C345.869 235.07 347.504 235.353 349.018 235.245C350.297 235.154 351.188 234.912 351.005 234.732C350.822 234.551 350.074 234.658 349.046 234.216C348.064 233.793 347.353 232.795 347.633 232.263C347.916 231.731 347.873 231.837 348.95 232.114Z" fill="#FFA8A7"/>
<path d="M384.991 204.413C386.552 204.49 388.562 205.439 388.524 208.097C388.486 210.754 384.404 218.474 381.256 222.882C381.256 222.882 376.348 222.567 373.767 218.867C373.767 218.867 378.355 211.57 379.601 209.241C380.717 207.153 382.716 204.303 384.991 204.413Z" fill="#0F9D58"/>
<path d="M344.133 215.552C344.133 215.552 346.194 214.526 348.845 214.961C350.127 215.172 350.133 219.455 346.007 220.807C343.322 221.688 341.709 221.299 340.843 223.509C340.843 223.509 339.103 223.278 339.498 220.807C339.892 218.338 340.971 216.086 342.77 213.962C343.954 212.565 344.032 211.389 344.613 211.787C345.27 212.237 344.966 213.535 344.966 213.535L344.133 215.552Z" fill="#FFA8A7"/>
</svg>
