<svg width="488" height="488" viewBox="0 0 488 488" fill="none" xmlns="http://www.w3.org/2000/svg">
<path d="M243.071 474.388C370.071 474.388 473.024 414.947 473.024 341.623C473.024 268.3 370.071 208.859 243.071 208.859C116.071 208.859 13.1174 268.3 13.1174 341.623C13.1174 414.947 116.071 474.388 243.071 474.388Z" fill="white"/>
<path d="M375.138 387.691C360.059 378.985 360.059 364.87 375.138 356.164C390.217 347.458 414.664 347.458 429.744 356.164C444.823 364.87 444.823 378.985 429.744 387.691C414.664 396.397 390.217 396.397 375.138 387.691Z" fill="#E0E0E0"/>
<path d="M68.4361 388.899L28.7715 365.998C26.5355 364.707 26.5355 362.613 28.7715 361.322L259.487 228.119C261.723 226.827 265.349 226.827 267.585 228.119L307.252 251.018C309.488 252.31 309.488 254.403 307.252 255.694L76.534 388.899C74.298 390.19 70.6722 390.19 68.4361 388.899Z" fill="#E0E0E0"/>
<path d="M211.011 348.085L245.11 328.368C248.624 326.339 250.382 323.68 250.382 321.02C250.382 318.361 250.397 316.277 250.397 316.277L215.018 296.327C213.143 295.245 211.623 292.613 211.623 290.448V248.407L152.065 282.822L152.063 324.863C152.063 327.027 153.582 329.66 155.457 330.742L185.553 348.084C192.583 352.144 203.981 352.143 211.011 348.085Z" fill="#3C5354"/>
<g opacity="0.6">
<path d="M211.011 348.085L245.11 328.368C248.624 326.339 250.382 323.68 250.382 321.02C250.382 318.361 250.397 316.277 250.397 316.277L215.018 296.327C213.143 295.245 211.623 292.613 211.623 290.448V248.407L152.065 282.822L152.063 324.863C152.063 327.027 153.582 329.66 155.457 330.742L185.553 348.084C192.583 352.144 203.981 352.143 211.011 348.085Z" fill="#153132"/>
</g>
<path opacity="0.3" d="M166.364 332.309V337.031L155.448 330.741C153.586 329.664 152.058 327.037 152.058 324.862V282.825L163.405 276.279C163.64 279.16 163.895 282.139 164.13 285.04L156.174 289.646V322.491C156.174 324.666 157.683 327.292 159.564 328.37L166.364 332.309Z" fill="#153132"/>
<path d="M156.172 322.498C156.172 324.663 157.691 327.295 159.566 328.377L185.549 343.344C192.579 347.402 203.978 347.404 211.008 343.347L245.124 323.633C252.155 319.576 252.156 312.996 245.126 308.937L219.127 293.961C217.252 292.878 215.732 290.246 215.732 288.081L215.731 255.232L156.172 289.648V322.498Z" fill="#3C5354"/>
<path opacity="0.3" d="M156.172 322.498C156.172 324.663 157.691 327.295 159.566 328.377L185.549 343.344C192.579 347.402 203.978 347.404 211.008 343.347L245.124 323.633C252.155 319.576 252.156 312.996 245.126 308.937L219.127 293.961C217.252 292.878 215.732 290.246 215.732 288.081L215.731 255.232L156.172 289.648V322.498Z" fill="#153132"/>
<path opacity="0.5" d="M226.04 297.956V297.951L219.126 293.96C217.251 292.877 215.731 290.245 215.731 288.08V255.231L156.171 289.647V322.498C156.171 324.663 157.69 327.295 159.565 328.377L166.359 332.3L226.04 297.956Z" fill="#153132"/>
<path d="M250.391 316.281C250.391 316.281 250.391 318.358 250.391 321.023C250.391 323.689 248.627 326.334 245.119 328.372L211.015 348.077C207.644 350.037 203.274 351.017 198.865 351.095V346.372C203.274 346.313 207.644 345.294 211.015 343.354L245.119 323.629C248.626 321.611 250.391 318.946 250.391 316.281Z" fill="#3C5354"/>
<path opacity="0.5" d="M250.391 316.281C250.391 316.281 250.391 318.358 250.391 321.023C250.391 323.689 248.627 326.334 245.119 328.372L211.015 348.077C207.644 350.037 203.274 351.017 198.865 351.095V346.372C203.274 346.313 207.644 345.294 211.015 343.354L245.119 323.629C248.626 321.611 250.391 318.946 250.391 316.281Z" fill="#153132"/>
<path d="M60.5423 363.329C62.7402 364.597 66.4227 364.529 68.766 363.176C98.047 346.271 269.822 247.099 299.099 230.196C301.443 228.844 303.341 225.554 303.341 222.848V36.516C303.341 33.8105 301.559 30.5878 299.361 29.319C297.163 28.0502 293.481 28.1175 291.138 29.4712L60.8077 162.451C58.4644 163.804 56.5651 167.094 56.5651 169.8L56.5621 356.132C56.5621 358.837 58.3433 362.059 60.5423 363.329Z" fill="#0F9D58"/>
<path d="M68.766 363.172L299.098 230.193C301.441 228.84 303.341 225.55 303.341 222.843V36.5113C303.341 33.8058 301.441 32.7088 299.098 34.0615L68.7689 167.042C66.4255 168.394 64.5262 171.684 64.5262 174.391L64.5233 360.722C64.5233 363.427 66.4236 364.524 68.766 363.172Z" fill="#153132"/>
<path opacity="0.5" d="M68.8063 354.006L299.138 221.027C301.482 219.674 303.381 216.384 303.381 213.677V27.3453C303.381 24.6398 301.482 23.5428 299.138 24.8955L68.8092 157.875C66.4658 159.228 64.5665 162.518 64.5665 165.225L64.5636 351.556C64.5636 354.261 66.4639 355.358 68.8063 354.006Z" fill="#040A0A"/>
<path d="M68.1414 368.015C65.7902 369.053 62.5372 369.014 60.5384 367.857C58.3433 366.584 56.5602 363.37 56.5602 360.646V343.68L64.5165 348.286V365.251C64.5165 367.721 66.084 368.837 68.1414 368.015Z" fill="#0F9D58"/>
<path opacity="0.5" d="M68.1414 368.015C65.7902 369.053 62.5372 369.014 60.5384 367.857C58.3433 366.584 56.5602 363.37 56.5602 360.646V343.68L64.5165 348.286V365.251C64.5165 367.721 66.084 368.837 68.1414 368.015Z" fill="#040A0A"/>
<path d="M64.5165 348.285L64.5233 365.244C64.5233 367.95 66.4236 369.047 68.766 367.694L299.098 234.715C301.441 233.362 303.341 230.072 303.341 227.366V210.37L64.5165 348.285Z" fill="#153132"/>
<path opacity="0.3" d="M63.7251 348.34V365.335C63.7251 368.041 65.6254 369.138 67.9678 367.785L298.3 234.806C300.643 233.453 302.543 230.163 302.543 227.457V210.46L63.7251 348.34Z" fill="#3C5354"/>
<path d="M72.4817 327L72.4836 177.033C72.4836 175.41 73.6236 173.435 75.0291 172.623L292.83 46.8753C294.237 46.0633 295.376 46.7221 295.376 48.3452L295.383 198.316C295.383 199.939 294.243 201.914 292.837 202.726L75.0281 328.47C73.6217 329.282 72.4817 328.623 72.4817 327Z" fill="#0F9D58"/>
<path d="M72.4817 327L72.4836 177.033C72.4836 175.41 73.6236 173.435 75.0291 172.623L292.83 46.8753C294.237 46.0633 295.376 46.7221 295.376 48.3452L295.383 198.316C295.383 199.939 294.243 201.914 292.837 202.726L75.0281 328.47C73.6217 329.282 72.4817 328.623 72.4817 327Z" fill="#153132"/>
<path d="M183.929 284.725C181.73 285.994 179.948 289.081 179.948 291.62C179.948 294.159 181.731 295.187 183.93 293.918C186.129 292.648 187.911 289.561 187.911 287.022C187.91 284.484 186.128 283.456 183.929 284.725Z" fill="#0F9D58"/>
<path opacity="0.7" d="M65.7707 170.193C65.0065 171.525 64.536 173.034 64.5165 174.387V348.286L56.5602 343.68L56.5651 169.801C56.5651 168.449 57.0501 166.94 57.8143 165.608L65.7707 170.193Z" fill="#040A0A"/>
<path opacity="0.3" d="M303.298 35.8134C302.997 33.6262 301.231 32.8337 299.094 34.0576L68.769 167.045C67.6046 167.718 66.5515 168.862 65.7687 170.196L57.8114 165.601C58.5844 164.286 59.6375 163.123 60.8116 162.45L291.137 29.4723C293.485 28.1176 297.157 28.0474 299.365 29.322C301.371 30.4756 303.027 33.2748 303.298 35.8134Z" fill="#040A0A"/>
<path d="M315.728 58.7427C315.174 58.4099 314.418 58.4216 313.565 58.9145L96.2211 184.414C94.5785 185.363 93.2472 187.666 93.2472 189.563L93.2491 338.617C93.2491 339.772 93.744 340.793 94.5023 341.2C94.9884 341.462 97.5426 342.947 98.3009 343.355C98.787 343.617 99.3814 343.625 100.024 343.256L317.359 217.706C319.003 216.76 320.335 214.457 320.335 212.56V62.7843C320.335 61.8064 319.981 61.1291 319.414 60.8314C318.88 60.5522 316.276 59.0707 315.728 58.7427Z" fill="#0F9D58"/>
<path d="M99.0416 343.055C98.211 343.055 97.5366 342.031 97.5366 340.771V191.718C97.5366 190.01 98.7859 187.845 100.266 186.99L317.606 61.49C317.993 61.2665 318.366 61.1494 318.689 61.1494C319.415 61.1494 319.847 61.7604 319.847 62.7842V212.561C319.847 214.269 318.597 216.432 317.116 217.283L99.7795 342.833C99.5238 342.98 99.2759 343.055 99.0416 343.055Z" fill="#FAFAFA"/>
<path d="M318.69 61.6374C319.272 61.6374 319.359 62.3557 319.359 62.7842V212.561C319.359 214.116 318.22 216.085 316.871 216.861L99.5374 342.41C99.3559 342.515 99.189 342.567 99.0416 342.567C98.4989 342.567 98.0236 341.728 98.0236 340.771V191.718C98.0236 190.162 99.1616 188.191 100.509 187.414L317.85 61.9126C318.244 61.6852 318.524 61.6374 318.69 61.6374ZM318.69 60.6614C318.291 60.6614 317.839 60.7922 317.362 61.0674L100.021 186.568C98.3799 187.516 97.0486 189.822 97.0486 191.718V340.771C97.0486 342.271 97.8811 343.543 99.0426 343.543C99.35 343.543 99.6809 343.454 100.024 343.256L317.36 217.707C319.004 216.761 320.336 214.458 320.336 212.561V62.7842C320.336 61.4393 319.665 60.6614 318.69 60.6614Z" fill="#E0E0E0"/>
<path d="M94.4983 341.199C94.8204 341.37 97.1325 342.688 98.1456 343.265C97.4624 342.778 97.1023 341.942 97.0515 340.769V201.444L93.2451 199.216V338.617C93.2451 339.768 93.7409 340.797 94.4983 341.199Z" fill="#F0F0F0"/>
<path d="M320.334 62.7617C320.322 60.8838 318.998 60.1235 317.363 61.0673L100.021 186.568C98.3799 187.516 97.0486 189.822 97.0486 191.718L97.0515 201.443L320.334 72.5197V62.7617Z" fill="#0F9D58"/>
<g opacity="0.4">
<path d="M317.361 61.0664L100.024 186.566C99.2105 187.044 98.4628 187.848 97.9299 188.773L94.1519 186.585C94.6848 185.668 95.4167 184.872 96.22 184.413L313.564 58.9133C314.416 58.4175 315.173 58.4097 315.725 58.7376C316.258 59.0646 318.728 60.4681 319.354 60.8038C318.829 60.552 318.128 60.6272 317.361 61.0664Z" fill="white"/>
</g>
<path opacity="0.15" d="M93.2451 199.226L93.2471 189.559C93.2471 188.596 93.6004 187.53 94.1518 186.585L97.9387 188.763C97.3873 189.698 97.0505 190.755 97.0505 191.718V201.442L93.2451 199.226Z" fill="#040A0A"/>
<path d="M274.5 175.117L144.327 250.272C143.128 250.965 142.154 252.649 142.154 254.034V291.353C142.154 292.738 143.128 294.421 144.329 295.112L148.132 297.3C149.333 297.991 151.279 297.989 152.479 297.297L282.634 222.152C283.834 221.459 284.807 219.775 284.808 218.39L284.823 181.061C284.824 179.676 283.851 177.992 282.65 177.301L278.847 175.113C277.646 174.423 275.7 174.425 274.5 175.117Z" fill="#0F9D58"/>
<path opacity="0.5" d="M284.806 180.709C284.655 179.586 283.742 179.174 282.649 179.806L152.48 254.959C151.878 255.301 151.337 255.902 150.945 256.585L142.798 251.878C143.189 251.206 143.731 250.614 144.323 250.273L274.501 175.12C275.696 174.428 277.642 174.417 278.846 175.11L282.649 177.297C283.752 177.93 284.665 179.405 284.806 180.709Z" fill="white"/>
<path d="M152.11 297.472C150.905 297.983 149.22 297.924 148.136 297.301L144.334 295.114C143.129 294.422 142.156 292.736 142.156 291.352V254.036C142.156 253.333 142.407 252.561 142.799 251.879L150.946 256.585C150.545 257.268 150.304 258.03 150.304 258.723V296.048C150.303 297.291 151.086 297.863 152.11 297.472Z" fill="#263238"/>
<path d="M152.478 254.963L282.651 179.807C283.85 179.115 284.822 179.677 284.822 181.062L284.807 218.391C284.806 219.776 283.833 221.46 282.633 222.153L152.478 297.298C151.278 297.991 150.305 297.429 150.305 296.044V258.726C150.306 257.34 151.278 255.655 152.478 254.963Z" fill="#0F9D58"/>
<path d="M239.993 195.043L144.322 250.274C143.731 250.615 143.189 251.207 142.797 251.879L150.944 256.585C151.336 255.903 151.877 255.301 152.48 254.96L248.125 199.739L239.993 195.043Z" fill="#455A64"/>
<path d="M248.126 199.74L152.478 254.962C151.278 255.655 150.305 257.34 150.305 258.725V296.043C150.305 297.428 151.277 297.99 152.478 297.297L248.126 242.075V199.74Z" fill="#37474F"/>
<path d="M174.537 250.417L223.891 221.922C225.937 220.74 227.595 221.579 227.595 223.797C227.595 226.013 225.936 228.769 223.89 229.95L174.54 258.443C172.493 259.625 170.833 258.785 170.833 256.57C170.832 254.353 172.49 251.599 174.537 250.417Z" fill="#0F9D58"/>
<path d="M184.65 259.847C184.706 259.815 184.755 259.824 184.795 259.873C184.836 259.922 184.856 259.995 184.856 260.094V265.653C184.856 266.213 184.81 266.744 184.718 267.249C184.628 267.753 184.49 268.221 184.306 268.653C184.123 269.084 183.894 269.466 183.621 269.802C183.346 270.135 183.028 270.407 182.667 270.615C182.301 270.826 181.981 270.922 181.71 270.905C181.437 270.885 181.21 270.765 181.028 270.546C180.844 270.327 180.708 270.015 180.619 269.615C180.531 269.215 180.485 268.735 180.485 268.175V262.617C180.485 262.518 180.505 262.421 180.546 262.325C180.586 262.23 180.634 262.164 180.691 262.133L181.31 261.776C181.365 261.743 181.413 261.752 181.455 261.8C181.495 261.849 181.516 261.922 181.516 262.022V267.512C181.516 267.883 181.544 268.182 181.599 268.412C181.654 268.643 181.734 268.812 181.835 268.919C181.936 269.029 182.059 269.08 182.202 269.075C182.344 269.07 182.499 269.018 182.667 268.921C182.835 268.825 182.99 268.696 183.136 268.535C183.281 268.374 183.404 268.182 183.507 267.955C183.608 267.73 183.688 267.469 183.747 267.173C183.805 266.878 183.834 266.544 183.834 266.174V260.685C183.834 260.585 183.854 260.489 183.894 260.393C183.935 260.297 183.983 260.232 184.04 260.2L184.65 259.847Z" fill="#FAFAFA"/>
<path d="M188.478 265.106C188.478 265.008 188.461 264.936 188.425 264.893C188.39 264.85 188.327 264.828 188.238 264.825C188.149 264.822 188.03 264.836 187.884 264.867C187.736 264.898 187.548 264.934 187.32 264.976C187.095 265.015 186.911 265.008 186.764 264.959C186.615 264.908 186.498 264.817 186.409 264.688C186.32 264.559 186.258 264.391 186.222 264.179C186.187 263.969 186.169 263.729 186.169 263.459C186.169 263.187 186.204 262.9 186.276 262.596C186.347 262.293 186.449 262.001 186.584 261.72C186.72 261.439 186.883 261.18 187.076 260.941C187.269 260.704 187.491 260.513 187.74 260.37C187.988 260.226 188.211 260.146 188.407 260.134C188.603 260.12 188.769 260.155 188.907 260.238C189.043 260.322 189.15 260.448 189.226 260.616C189.302 260.785 189.345 260.974 189.356 261.185C189.361 261.281 189.341 261.379 189.298 261.475C189.255 261.572 189.205 261.637 189.149 261.669L188.562 262.007C188.487 262.051 188.429 262.06 188.391 262.033C188.352 262.005 188.311 261.972 188.266 261.935C188.22 261.9 188.159 261.878 188.082 261.873C188.007 261.867 187.892 261.908 187.74 261.996C187.586 262.083 187.453 262.201 187.335 262.35C187.218 262.499 187.159 262.678 187.159 262.886C187.159 262.984 187.173 263.059 187.202 263.112C187.229 263.163 187.282 263.194 187.361 263.202C187.44 263.212 187.55 263.204 187.69 263.182C187.829 263.161 188.01 263.126 188.234 263.079C188.686 262.989 189.005 263.073 189.191 263.332C189.376 263.59 189.47 263.992 189.47 264.533C189.47 264.805 189.432 265.09 189.356 265.392C189.28 265.694 189.168 265.987 189.024 266.275C188.879 266.562 188.702 266.828 188.49 267.072C188.279 267.316 188.041 267.514 187.778 267.665C187.507 267.821 187.271 267.901 187.064 267.907C186.858 267.913 186.684 267.867 186.543 267.768C186.399 267.67 186.291 267.529 186.215 267.347C186.139 267.165 186.098 266.968 186.092 266.755C186.087 266.658 186.107 266.56 186.15 266.464C186.193 266.367 186.241 266.302 186.298 266.269L186.886 265.93C186.962 265.887 187.018 265.885 187.057 265.926C187.094 265.968 187.138 266.014 187.186 266.068C187.234 266.122 187.301 266.155 187.388 266.169C187.474 266.182 187.604 266.139 187.778 266.038C187.854 265.994 187.933 265.94 188.014 265.874C188.095 265.81 188.171 265.737 188.239 265.657C188.307 265.577 188.364 265.489 188.411 265.395C188.455 265.302 188.478 265.206 188.478 265.106Z" fill="#FAFAFA"/>
<path d="M190.466 262.452C190.466 261.947 190.509 261.446 190.596 260.948C190.683 260.451 190.808 259.991 190.97 259.566C191.133 259.143 191.329 258.77 191.561 258.446C191.792 258.123 192.05 257.88 192.334 257.715C192.619 257.55 192.876 257.493 193.108 257.544C193.339 257.597 193.536 257.732 193.699 257.95C193.861 258.168 193.987 258.461 194.077 258.829C194.164 259.199 194.21 259.614 194.21 260.075V260.684C194.21 260.783 194.19 260.882 194.149 260.975C194.109 261.071 194.061 261.137 194.003 261.169L191.457 262.64C191.457 262.847 191.482 263.015 191.53 263.145C191.578 263.277 191.643 263.373 191.724 263.433C191.806 263.495 191.9 263.522 192.007 263.514C192.113 263.507 192.223 263.47 192.334 263.406C192.497 263.313 192.628 263.208 192.731 263.089C192.832 262.972 192.916 262.85 192.983 262.721C193.038 262.617 193.084 262.54 193.12 262.492C193.155 262.444 193.204 262.404 193.266 262.369L193.876 262.017C193.93 261.986 193.98 261.992 194.024 262.038C194.067 262.086 194.086 262.161 194.081 262.264C194.076 262.394 194.037 262.578 193.963 262.82C193.89 263.061 193.779 263.319 193.632 263.594C193.484 263.869 193.303 264.137 193.087 264.396C192.871 264.656 192.62 264.869 192.336 265.033C192.051 265.198 191.794 265.258 191.562 265.217C191.331 265.174 191.134 265.037 190.972 264.805C190.809 264.574 190.685 264.26 190.598 263.862C190.51 263.465 190.466 262.995 190.466 262.452ZM192.335 259.34C192.187 259.426 192.062 259.538 191.958 259.673C191.853 259.812 191.765 259.96 191.694 260.123C191.623 260.287 191.569 260.453 191.53 260.625C191.492 260.797 191.468 260.952 191.457 261.094L193.181 260.099C193.171 259.97 193.151 259.839 193.124 259.705C193.097 259.572 193.051 259.464 192.986 259.378C192.923 259.294 192.838 259.243 192.735 259.226C192.63 259.209 192.497 259.247 192.335 259.34Z" fill="#FAFAFA"/>
<path d="M197.276 256.623C196.971 256.8 196.752 257.047 196.616 257.363C196.481 257.681 196.414 258.111 196.414 258.653V262.177C196.414 262.275 196.394 262.374 196.354 262.469C196.313 262.564 196.265 262.63 196.207 262.661L195.629 262.996C195.574 263.027 195.525 263.019 195.484 262.97C195.443 262.923 195.422 262.848 195.422 262.749V256.432C195.422 256.334 195.443 256.235 195.484 256.14C195.524 256.045 195.573 255.98 195.629 255.947L196.207 255.614C196.264 255.581 196.312 255.59 196.354 255.639C196.394 255.686 196.414 255.761 196.414 255.86V256.173C196.546 255.879 196.687 255.631 196.838 255.426C196.987 255.222 197.183 255.05 197.428 254.909L197.771 254.711C197.826 254.679 197.874 254.687 197.916 254.736C197.956 254.784 197.977 254.859 197.977 254.957V255.852C197.977 255.952 197.956 256.05 197.916 256.145C197.875 256.241 197.827 256.306 197.771 256.337L197.276 256.623Z" fill="#FAFAFA"/>
<path d="M204.557 256.148C204.613 256.116 204.66 256.125 204.702 256.174C204.742 256.221 204.763 256.297 204.763 256.395V257.359C204.763 257.457 204.742 257.556 204.702 257.65C204.661 257.746 204.614 257.81 204.557 257.843L201.217 259.771C201.16 259.803 201.114 259.795 201.072 259.746C201.032 259.698 201.011 259.624 201.011 259.524V250.768C201.011 250.669 201.032 250.571 201.072 250.476C201.113 250.38 201.159 250.316 201.217 250.283L201.835 249.927C201.89 249.895 201.939 249.904 201.98 249.953C202.021 250.001 202.042 250.074 202.042 250.174V257.602L204.557 256.148Z" fill="#FAFAFA"/>
<path d="M207.552 248.929C207.832 248.767 208.085 248.698 208.312 248.721C208.538 248.743 208.734 248.843 208.898 249.019C209.064 249.194 209.196 249.433 209.294 249.739C209.394 250.042 209.453 250.399 209.467 250.805C209.472 250.883 209.475 250.985 209.475 251.112C209.475 251.237 209.475 251.365 209.475 251.49C209.475 251.618 209.475 251.741 209.475 251.865C209.475 251.986 209.472 252.089 209.467 252.173C209.447 252.601 209.389 253.022 209.291 253.44C209.195 253.858 209.064 254.247 208.898 254.609C208.733 254.97 208.537 255.294 208.312 255.578C208.085 255.862 207.832 256.085 207.552 256.247C207.273 256.408 207.02 256.478 206.794 256.455C206.568 256.431 206.372 256.336 206.208 256.163C206.042 255.992 205.912 255.753 205.815 255.449C205.718 255.143 205.659 254.787 205.638 254.384C205.633 254.306 205.631 254.205 205.628 254.086C205.626 253.964 205.624 253.843 205.624 253.716C205.624 253.588 205.626 253.461 205.628 253.334C205.631 253.206 205.633 253.1 205.638 253.016C205.654 252.591 205.712 252.17 205.81 251.75C205.91 251.332 206.042 250.939 206.208 250.572C206.373 250.205 206.568 249.881 206.794 249.597C207.02 249.312 207.273 249.091 207.552 248.929ZM208.477 251.446C208.461 251.175 208.424 250.964 208.364 250.812C208.306 250.66 208.234 250.555 208.147 250.496C208.061 250.438 207.967 250.418 207.866 250.436C207.764 250.453 207.659 250.493 207.552 250.555C207.447 250.615 207.342 250.697 207.241 250.797C207.139 250.896 207.045 251.025 206.959 251.183C206.873 251.343 206.799 251.531 206.741 251.75C206.684 251.968 206.647 252.223 206.631 252.511C206.626 252.587 206.622 252.68 206.62 252.789C206.617 252.898 206.615 253.012 206.615 253.13C206.615 253.247 206.617 253.361 206.62 253.472C206.622 253.584 206.626 253.67 206.631 253.731C206.647 254.001 206.684 254.213 206.741 254.363C206.799 254.516 206.873 254.62 206.959 254.678C207.045 254.737 207.139 254.758 207.241 254.739C207.342 254.721 207.447 254.68 207.552 254.62C207.659 254.558 207.764 254.478 207.866 254.379C207.967 254.279 208.061 254.151 208.147 253.992C208.233 253.833 208.306 253.645 208.364 253.426C208.423 253.207 208.46 252.953 208.477 252.664C208.48 252.6 208.483 252.509 208.483 252.396C208.483 252.282 208.483 252.166 208.483 252.049C208.483 251.934 208.483 251.82 208.483 251.712C208.483 251.603 208.48 251.515 208.477 251.446Z" fill="#FAFAFA"/>
<path d="M212.455 254.636C212.563 254.576 212.671 254.482 212.784 254.359C212.895 254.236 212.996 254.086 213.087 253.905C213.179 253.727 213.254 253.523 213.313 253.294C213.371 253.066 213.4 252.821 213.4 252.559V252.057C213.359 252.161 213.307 252.28 213.239 252.413C213.174 252.547 213.093 252.682 212.999 252.817C212.906 252.953 212.795 253.084 212.672 253.21C212.547 253.337 212.406 253.445 212.249 253.535C211.994 253.682 211.764 253.727 211.559 253.67C211.352 253.614 211.177 253.478 211.033 253.268C210.887 253.058 210.773 252.786 210.69 252.45C210.606 252.114 210.558 251.742 210.548 251.332C210.543 251.198 210.541 251.043 210.541 250.861C210.541 250.681 210.543 250.523 210.548 250.383C210.558 249.961 210.605 249.535 210.69 249.102C210.773 248.669 210.888 248.265 211.033 247.887C211.178 247.51 211.352 247.173 211.559 246.878C211.764 246.584 211.994 246.364 212.249 246.217C212.406 246.126 212.547 246.069 212.672 246.053C212.795 246.035 212.906 246.04 212.999 246.066C213.093 246.093 213.174 246.136 213.239 246.193C213.306 246.25 213.358 246.307 213.4 246.365V246.053C213.4 245.954 213.42 245.856 213.461 245.761C213.501 245.665 213.549 245.601 213.606 245.568L214.185 245.234C214.241 245.202 214.29 245.21 214.331 245.259C214.372 245.307 214.392 245.382 214.392 245.481V251.838C214.392 252.931 214.219 253.855 213.877 254.609C213.534 255.364 213.06 255.914 212.454 256.263C212.195 256.414 211.955 256.491 211.733 256.498C211.513 256.503 211.321 256.451 211.159 256.342C210.996 256.232 210.867 256.076 210.769 255.874C210.674 255.672 210.619 255.438 210.609 255.173C210.603 255.078 210.623 254.98 210.667 254.883C210.709 254.786 210.758 254.72 210.815 254.688L211.333 254.39C211.405 254.349 211.465 254.356 211.516 254.413C211.567 254.469 211.61 254.522 211.646 254.576C211.711 254.691 211.802 254.766 211.916 254.798C212.033 254.833 212.212 254.778 212.455 254.636ZM211.54 249.906C211.525 250.168 211.525 250.421 211.54 250.666C211.57 251.234 211.673 251.599 211.846 251.755C212.017 251.914 212.229 251.92 212.477 251.777C212.726 251.632 212.936 251.381 213.107 251.02C213.277 250.661 213.375 250.229 213.4 249.726C213.41 249.585 213.416 249.411 213.416 249.202C213.416 248.994 213.41 248.826 213.4 248.697C213.375 248.241 213.277 247.927 213.107 247.754C212.936 247.581 212.726 247.566 212.477 247.711C212.228 247.853 212.016 248.106 211.846 248.463C211.673 248.82 211.571 249.303 211.54 249.906Z" fill="#FAFAFA"/>
<path d="M216.649 241.238C216.704 241.205 216.753 241.213 216.793 241.261C216.834 241.31 216.854 241.385 216.854 241.484V242.541C216.854 242.64 216.834 242.738 216.793 242.834C216.753 242.929 216.704 242.994 216.649 243.027L215.994 243.405C215.938 243.436 215.889 243.428 215.848 243.379C215.807 243.33 215.787 243.256 215.787 243.157V242.1C215.787 242.001 215.807 241.903 215.848 241.807C215.888 241.712 215.937 241.647 215.994 241.616L216.649 241.238ZM216.817 250.398C216.817 250.497 216.797 250.596 216.756 250.689C216.716 250.785 216.667 250.851 216.61 250.883L216.033 251.217C215.977 251.249 215.928 251.24 215.887 251.191C215.846 251.144 215.826 251.069 215.826 250.97V244.654C215.826 244.554 215.846 244.456 215.887 244.362C215.927 244.266 215.976 244.201 216.033 244.169L216.61 243.835C216.666 243.803 216.715 243.812 216.756 243.86C216.797 243.907 216.817 243.981 216.817 244.082V250.398Z" fill="#FAFAFA"/>
<path d="M221.971 247.423C221.971 247.521 221.95 247.62 221.911 247.715C221.87 247.81 221.822 247.875 221.766 247.907L221.186 248.242C221.13 248.273 221.083 248.265 221.041 248.216C221 248.168 220.98 248.094 220.98 247.995V244.551C220.98 244.01 220.91 243.616 220.766 243.373C220.624 243.13 220.406 243.093 220.11 243.264C219.841 243.419 219.629 243.705 219.474 244.119C219.319 244.534 219.242 245.013 219.242 245.555V248.998C219.242 249.097 219.221 249.195 219.181 249.29C219.14 249.385 219.093 249.451 219.036 249.482L218.457 249.817C218.402 249.848 218.352 249.84 218.312 249.791C218.271 249.744 218.25 249.669 218.25 249.57V243.253C218.25 243.155 218.271 243.056 218.312 242.961C218.352 242.866 218.401 242.801 218.457 242.768L219.036 242.435C219.092 242.402 219.139 242.411 219.181 242.46C219.221 242.508 219.242 242.583 219.242 242.681V242.994C219.375 242.682 219.529 242.399 219.707 242.143C219.885 241.886 220.096 241.688 220.341 241.547C220.65 241.368 220.91 241.303 221.118 241.355C221.327 241.407 221.493 241.54 221.62 241.756C221.748 241.972 221.838 242.258 221.892 242.61C221.944 242.963 221.971 243.353 221.971 243.777V247.423Z" fill="#FAFAFA"/>
<path d="M271.206 219.016L261.725 224.49L263.194 211.193C262.06 210.593 261.338 209.118 261.338 207C261.338 203.224 263.633 198.837 266.466 197.202C269.297 195.567 271.592 197.302 271.592 201.078C271.592 203.196 270.87 205.506 269.736 207.416L271.206 219.016Z" fill="#455A64"/>
<path d="M271.206 219.016L262.862 214.2L261.725 224.49L271.206 219.016Z" fill="#37474F"/>
<path d="M266.466 197.202C264.613 198.271 262.995 200.521 262.094 203.005L269.738 207.419V207.417C270.872 205.508 271.594 203.198 271.594 201.079C271.593 197.303 269.298 195.567 266.466 197.202Z" fill="#37474F"/>
<path d="M220.377 152.943C217.135 151.066 212.655 151.333 207.704 154.191C197.808 159.906 189.786 173.801 189.788 185.228C189.789 190.962 191.81 194.982 195.074 196.845C195.923 197.33 200.532 200.011 201.388 200.506C204.63 202.38 209.108 202.112 214.056 199.255C223.951 193.542 231.972 179.647 231.972 168.219C231.972 162.508 229.967 158.498 226.728 156.626" fill="#0F9D58"/>
<path d="M214.053 157.873C204.159 163.589 196.136 177.483 196.138 188.909C196.139 200.336 204.162 204.968 214.056 199.254C223.951 193.541 231.983 179.645 231.972 168.217C231.962 156.792 223.939 152.16 214.053 157.873Z" fill="#0F9D58"/>
<path d="M223.947 183.226V184.529C221.396 188.884 217.904 192.676 214.054 194.893C210.198 197.116 206.714 197.359 204.162 195.94V193.238C204.162 188.022 207.704 181.884 212.222 179.269L214.823 177.772C217.133 176.438 219.371 176.268 221.131 177.287C222.928 178.322 223.947 180.482 223.947 183.226Z" fill="#0F9D58"/>
<path opacity="0.4" d="M220.377 152.943L226.728 156.624C223.484 154.746 219.004 155.011 214.055 157.871C207.576 161.616 201.899 168.868 198.753 176.636L192.402 172.951C195.548 165.183 201.222 157.932 207.705 154.19C212.656 151.334 217.136 151.066 220.377 152.943Z" fill="white"/>
<path opacity="0.2" d="M201.149 200.366C200.03 199.72 195.857 197.29 195.072 196.843C191.808 194.981 189.786 190.961 189.786 185.228L196.137 188.913C196.141 194.482 198.05 198.437 201.149 200.366Z" fill="#040A0A"/>
<path opacity="0.1" d="M192.402 172.952L198.753 176.637C197.092 180.732 196.138 184.969 196.138 188.909V188.912L189.787 185.227C189.787 181.284 190.745 177.045 192.402 172.952Z" fill="#040A0A"/>
<path d="M211.802 177.165C211.181 177.165 210.602 177.015 210.078 176.716C208.871 176.018 208.206 174.637 208.206 172.828C208.206 169.517 210.453 165.623 213.323 163.967V163.964C214.884 163.059 216.408 162.947 217.625 163.644C218.832 164.342 219.497 165.723 219.497 167.532C219.497 170.843 217.25 174.736 214.382 176.393C213.492 176.905 212.616 177.165 211.802 177.165Z" fill="white"/>
<path d="M221.131 177.288C219.371 176.27 217.133 176.44 214.823 177.774L212.222 179.271C207.704 181.886 204.162 188.023 204.162 193.24V195.942C206.713 197.36 210.198 197.118 214.054 194.895C217.903 192.678 221.395 188.886 223.947 184.531V183.227C223.947 180.482 222.928 178.322 221.131 177.288Z" fill="white"/>
<path d="M421.782 346.137C421.782 346.137 423.078 334.738 428.748 325.891C434.418 317.045 442.209 311.524 449.478 310.949C456.747 310.374 462.619 317.061 454.84 321.655C447.063 326.248 433.243 330.934 426.884 348.112L421.782 346.137Z" fill="#0F9D58"/>
<path opacity="0.1" d="M421.782 346.137C421.782 346.137 423.078 334.738 428.748 325.891C434.418 317.045 442.209 311.524 449.478 310.949C456.747 310.374 462.619 317.061 454.84 321.655C447.063 326.248 433.243 330.934 426.884 348.112L421.782 346.137Z" fill="#040A0A"/>
<path d="M423.914 343.176C423.888 343.171 423.862 343.165 423.837 343.154C423.638 343.074 423.542 342.847 423.623 342.648C431.294 323.756 445.898 315.867 452.549 314.335C452.757 314.286 452.966 314.418 453.014 314.626C453.062 314.836 452.932 315.044 452.723 315.092C446.209 316.592 431.894 324.344 424.342 342.94C424.272 343.114 424.091 343.208 423.914 343.176Z" fill="white"/>
<path d="M462.745 343.4C462.087 344.883 460.467 345.656 458.959 346.263C457.46 346.865 455.816 347.522 455.002 348.925C453.362 351.759 456.056 355.743 454.294 358.503C453.554 359.66 452.18 360.27 450.828 360.512C449.705 360.722 448.562 360.721 447.423 360.816C446.875 360.805 446.333 360.766 445.804 360.691C444.241 360.464 442.546 360.391 441.114 361.19C438.861 362.456 438.169 365.3 436.802 367.493C435.161 370.119 432.262 371.838 429.215 372.252C428.202 372.386 426.32 372.568 425.288 371.994C425.207 371.949 425.141 371.907 425.075 371.858C425.069 371.857 425.063 371.848 425.057 371.839C424.915 371.679 424.738 371.476 424.661 371.366C424.641 371.347 424.631 371.324 424.621 371.3C424.221 369.83 424.873 368.3 424.899 366.783C424.902 366.687 424.903 366.598 424.897 366.507C424.834 364.743 424.784 362.988 424.743 361.228C424.661 357.99 424.623 354.745 424.646 351.502C424.668 349.397 424.415 347.092 425.306 345.109C426.292 342.927 428.745 342.88 429.672 340.739C430.044 339.886 430.241 338.972 430.6 338.109C431.673 335.579 434.272 333.761 437.023 333.626C441.304 333.408 445.148 336.875 449.425 336.56C450.532 336.473 451.612 336.136 452.703 335.935C456.172 335.286 460.18 336.273 462.13 339.209C462.947 340.436 463.341 342.053 462.745 343.4Z" fill="#0F9D58"/>
<path d="M424.271 364.554C424.261 364.553 424.252 364.551 424.242 364.548C424.048 364.496 423.931 364.296 423.983 364.101C429.9 341.902 453.289 338.694 458.761 339.09C458.959 339.105 459.113 339.279 459.099 339.48C459.084 339.681 458.909 339.832 458.708 339.818C453.356 339.431 430.478 342.57 424.689 364.289C424.64 364.474 424.457 364.589 424.271 364.554Z" fill="white"/>
<path d="M450.258 353.306C450.187 353.293 450.119 353.259 450.065 353.204C450.006 353.144 444.041 347.264 434.148 348.72C433.949 348.746 433.763 348.612 433.733 348.411C433.704 348.211 433.843 348.026 434.042 347.997C444.317 346.486 450.523 352.627 450.585 352.689C450.727 352.833 450.726 353.064 450.582 353.206C450.493 353.293 450.371 353.327 450.258 353.306Z" fill="white"/>
<path d="M368.064 78.0857L371.17 79.2804V72.4376C371.17 67.013 375.496 65.713 380.194 68.4243C384.891 71.1366 388.7 77.7324 388.7 83.157V84.1506C389.766 83.7251 391.142 83.89 392.647 84.7596C396.028 86.7116 398.767 91.4579 398.767 95.3609V95.8128L403.098 98.3133C405.324 99.5987 407.129 102.725 407.129 105.295C407.129 107.865 405.324 108.907 403.098 107.621L368.062 87.3939C365.836 86.1085 364.031 82.9833 364.031 80.4125C364.033 77.8417 365.838 76.8004 368.064 78.0857Z" fill="#45CB86"/>
<path d="M409.633 72.6767L415.264 75.9278C415.235 75.676 415.216 75.4271 415.216 75.1821V73.5512C415.216 70.6486 417.254 69.4716 419.768 70.9229C420.786 71.5104 421.723 72.4425 422.481 73.5317C422.893 69.8815 425.757 68.5219 429.235 70.5305C432.997 72.7021 436.046 77.9833 436.046 82.3255V84.7665C436.046 85.8918 435.838 86.8385 435.469 87.5939L440.146 90.2945C441.54 91.0997 442.671 93.0576 442.671 94.668C442.671 96.2784 441.54 96.9313 440.146 96.1261L409.632 78.5093C408.237 77.7041 407.107 75.7463 407.107 74.1359C407.108 72.5245 408.238 71.8715 409.633 72.6767Z" fill="#45CB86"/>
<path d="M387.831 220.802C383.732 227.733 379.788 233.754 377.019 236.64C371.761 239.086 359.407 242.845 354.573 243.475C353.716 243.586 352.855 243.368 352.147 242.904C350.246 241.659 348.776 241.457 346.773 240.763C345.204 240.22 344.54 239.47 344.245 239.755C343.866 240.121 343.453 241.163 344.409 242.241C344.889 242.783 345.765 243.375 346.892 244.099C346.892 244.099 343.436 245.021 340.349 244.211C336.165 243.113 334.189 245.124 337.019 249.668C338.032 251.295 342.022 253.9 350.107 253.196C352.436 252.994 355.798 252.799 358.698 252.18C366.453 250.525 375.073 248.921 380.373 247.338C381.71 246.939 384.098 245.392 385.52 243.771C394.435 233.609 397.387 226.369 401.295 219.788L400.957 209.036C394.64 208.84 391.261 215.002 387.831 220.802Z" fill="#FFA8A7"/>
<path d="M402.048 208.84C402.048 208.84 396.53 207.666 392.383 212.972C388.044 218.524 380.372 231.859 380.372 231.859C380.372 231.859 382.889 238.546 389.661 239.645L400.542 224.948C400.542 224.948 405.694 214.776 402.048 208.84Z" fill="#455A64"/>
<path d="M425.571 358.715H418.479V371.362H425.571V358.715Z" fill="#FFA8A7"/>
<path d="M400.979 358.041L393.89 358.294L393.535 344.911L400.979 344.657V358.041Z" fill="#FFA8A7"/>
<path d="M426.571 249.219C426.571 256.273 425.532 313.047 425.532 313.047C425.697 315.077 427.524 318.82 427.129 326.616C426.591 337.208 425.875 365.04 425.875 365.04C425.875 365.04 422.431 367.135 417.977 365.202C417.977 365.202 412.226 326.2 410.955 315.705C409.847 306.545 407.006 276.157 407.006 276.157L403.161 312.016C403.161 312.016 404.469 317.479 404.041 323.757C403.709 328.611 401.428 353.895 401.428 353.895C401.428 353.895 398.089 356.255 393.238 354.548C393.238 354.548 389.203 316.471 389.121 312.016C389.028 306.938 391.48 249.144 391.48 249.144L426.571 249.219Z" fill="#37474F"/>
<path d="M418.479 367.716V366.66C417.8 366.967 416.223 373.234 413.408 375.907C411.171 378.033 408.119 380.488 407.342 382.857C406.535 385.322 411.593 386.682 413.683 386.297C416.111 385.849 420.321 384.068 421.377 382.416C422.434 380.765 422.929 378.329 423.787 377.12C424.646 375.909 426.625 374.559 427.09 373.158C427.345 372.389 427.042 370.703 426.684 369.28C426.355 367.974 425.999 366.538 425.57 366.661C425.569 366.82 425.57 367.466 425.57 367.466C425.055 368.06 423.631 368.65 422.024 368.714C420.988 368.754 418.47 368.539 418.479 367.716Z" fill="#263238"/>
<path d="M393.815 356.016C393.446 356.03 393.146 356.571 392.334 357.487C391.353 358.594 389.747 359.788 388.162 360.614C385.506 361.999 380.342 364.129 378.006 365.226C376.546 365.911 376.614 367.748 378.123 368.793C379.632 369.839 383.275 370.592 387.651 369.572C390.034 369.017 393.137 366.724 395.1 366.848C397.064 366.972 400.739 366.943 402.188 365.901C403.637 364.861 403.058 362.639 402.648 360.729C402.201 358.644 401.642 355.394 400.979 355.536V356.255C400.126 357.6 395.725 358.147 393.852 357.156L393.815 356.016Z" fill="#263238"/>
<path d="M407.007 276.156C407.007 276.156 401.337 274.493 397.13 270.257C397.13 270.257 399.036 273.974 404.703 277.433L403.491 309.456L407.007 276.156Z" fill="#263238"/>
<path d="M422.599 209.898C422.599 209.898 428.431 211.247 428.036 221.821L426.81 238.665L426.844 263.943C421.628 269.852 398.505 269.42 390.588 263.469C390.588 263.469 391.485 233.555 392.02 222.044C392.4 213.86 394.283 209.74 402.326 208.839L412.216 209.274L422.599 209.898Z" fill="#0F9D58"/>
<path d="M415.146 187.914C415.146 193.989 410.419 198.913 404.587 198.913C398.755 198.913 395.303 193.853 394.028 187.914C391.693 177.052 398.755 176.916 404.587 176.916C410.419 176.916 415.146 181.839 415.146 187.914Z" fill="#263238"/>
<path d="M420.534 192.364C420.534 192.364 418.915 200.289 418.265 201.591C417.616 202.893 416.273 203.263 416.273 203.263L416.386 197.688L420.534 192.364Z" fill="#263238"/>
<path d="M418.502 181.01C418.502 181.01 419.663 180.719 420.897 182.647C421.955 184.299 422.195 188.011 420.535 192.364L417.484 192.729L418.502 181.01Z" fill="#263238"/>
<path d="M419.624 182.614L423.365 182.684C423.457 181.61 422.694 180.725 421.66 180.705C420.628 180.687 419.716 181.541 419.624 182.614Z" fill="#263238"/>
<path d="M420.082 181.728L422.854 179.063C422.17 178.27 420.995 178.224 420.229 178.96C419.464 179.695 419.398 180.935 420.082 181.728Z" fill="#263238"/>
<path d="M416.568 192.731C417.18 193.111 418.053 191.887 418.807 191.065C419.562 190.243 421.931 189.466 423.159 192.163C424.412 194.91 422.295 197.523 420.534 198.398C417.386 199.963 416.386 197.688 416.386 197.688L416.131 210.241C411.695 217.102 401.647 216.855 405.259 209.909L405.269 206.088C405.269 206.088 402.242 206.566 400.765 206.329C398.307 205.934 396.761 203.915 396.016 201.144C394.818 196.694 394.363 193.1 395.379 184.35C396.493 174.758 407.205 174.658 412.988 178.45C418.774 182.242 416.568 192.731 416.568 192.731Z" fill="#FFA8A7"/>
<path d="M403.216 182.853C405.775 182.597 408.305 182.077 410.869 181.887C411.424 181.846 411.991 181.822 412.529 181.967C414.493 182.498 414.24 184.782 414.552 186.378C415.089 189.125 415.535 193.783 416.568 193.803C416.876 193.809 418.046 191.788 418.807 191.066C419.3 190.598 419.384 189.59 419.491 188.966C419.686 187.827 419.791 186.673 419.878 185.522C419.952 184.548 420.05 183.556 420.046 182.578C420.041 181.481 420.062 180.365 419.79 179.293C419.542 178.32 419.087 177.592 418.422 176.834C418.357 176.76 418.292 176.688 418.227 176.617C416.965 175.256 415.355 174.236 413.646 173.532C411.194 172.521 408.536 172.118 405.897 171.847C403.258 171.577 400.598 171.43 397.999 170.896C397.848 170.864 397.686 170.833 397.541 170.888C397.315 170.975 397.216 171.237 397.17 171.474C396.941 172.679 397.483 173.996 398.495 174.69C396.726 174.831 394.696 173.909 392.992 173.448C392.705 173.37 392.379 173.297 392.124 173.451C391.949 173.557 391.845 173.752 391.783 173.948C391.638 174.4 391.671 174.889 391.735 175.361C391.925 176.754 392.4 178.13 393.259 179.242C394.494 180.844 396.528 182.288 398.534 182.691C400.118 183.01 401.597 183.014 403.216 182.853Z" fill="#263238"/>
<path d="M405.269 206.089C405.269 206.089 410.754 204.938 412.672 203.877C413.956 203.166 415.013 201.934 415.323 201.145C415.323 201.145 414.964 202.84 413.817 204.367C412.415 206.234 405.269 207.609 405.269 207.609V206.089Z" fill="#F28F8F"/>
<path d="M406.588 191.303C406.588 191.96 407.081 192.491 407.687 192.49C408.294 192.488 408.786 191.954 408.786 191.297C408.786 190.64 408.294 190.109 407.687 190.11C407.081 190.112 406.588 190.646 406.588 191.303Z" fill="#263238"/>
<path d="M408.353 186.562L410.706 187.914C411.052 187.211 410.807 186.337 410.157 185.964C409.507 185.591 408.7 185.859 408.353 186.562Z" fill="#263238"/>
<path d="M405.766 199.211L403.257 200.192C403.505 200.942 404.268 201.329 404.961 201.058C405.655 200.788 406.015 199.961 405.766 199.211Z" fill="#F28F8F"/>
<path d="M396.504 187.57L398.648 185.85C398.211 185.211 397.376 185.077 396.784 185.552C396.192 186.027 396.067 186.93 396.504 187.57Z" fill="#263238"/>
<path d="M397.446 190.977C397.446 191.634 397.938 192.165 398.545 192.163C399.152 192.161 399.644 191.627 399.644 190.97C399.644 190.313 399.152 189.782 398.545 189.783C397.938 189.786 397.446 190.32 397.446 190.977Z" fill="#263238"/>
<path d="M403.328 190.057L403.2 197.001L399.26 196.097L403.328 190.057Z" fill="#F28F8F"/>
<path d="M309.698 248.173L315.812 244.644L318.236 241.709L312.122 245.239L309.698 248.173Z" fill="#0F9D58"/>
<path opacity="0.4" d="M309.698 248.173L315.812 244.644L318.236 241.709L312.122 245.239L309.698 248.173Z" fill="#040A0A"/>
<path d="M326.336 257.779L332.45 254.25L337.56 249.727L331.446 253.256L326.336 257.779Z" fill="#0F9D58"/>
<path opacity="0.4" d="M326.336 257.779L332.45 254.25L337.56 249.727L331.446 253.256L326.336 257.779Z" fill="#040A0A"/>
<path d="M378.32 269.976C379.66 271.681 380.638 274.187 380.848 276.63C379.507 274.924 378.53 272.419 378.32 269.976ZM392.534 270.161C390.477 256.153 382.951 242.297 373.981 237.119C369.677 234.63 365.693 234.54 362.502 236.407C361.569 236.948 358.107 238.945 356.743 239.728C356.632 239.788 356.522 239.848 356.422 239.918C356.171 240.059 355.92 240.219 355.679 240.39C355.217 240.711 354.776 241.072 354.354 241.484C354.294 241.534 354.233 241.604 354.164 241.664C353.983 241.845 353.803 242.046 353.632 242.246C353.421 242.487 353.21 242.738 353.02 242.998C352.619 243.53 352.237 244.102 351.897 244.724C351.726 245.025 351.555 245.346 351.395 245.678L301.115 216.65L295.005 220.172V224.065L295.526 224.366L296.008 224.647V225.47L295.005 226.051V228.318L302.389 243.951L309.694 248.175L312.122 245.235L318.563 249.089L322.265 255.43L326.339 257.778L331.447 253.253L337.717 256.875L339.825 265.565L350.33 271.626C350.862 273.853 351.535 276.03 352.317 278.158C352.388 278.378 352.468 278.599 352.558 278.84C356.051 288.021 361.609 295.877 367.87 299.499C368.673 299.961 369.455 300.342 370.228 300.633C370.67 300.814 371.111 300.954 371.543 301.074C371.934 301.185 372.325 301.275 372.717 301.335C374.011 301.565 375.265 301.556 376.439 301.325C376.61 301.285 376.781 301.245 376.951 301.205C377.192 301.155 377.432 301.085 377.663 300.994C377.844 300.924 378.024 300.854 378.205 300.784C378.395 300.713 378.586 300.623 378.767 300.523C378.948 300.443 379.118 300.352 379.289 300.252C379.379 300.202 379.47 300.151 379.55 300.101C379.59 300.092 379.63 300.061 379.671 300.031C381.065 299.229 384.507 297.242 385.44 296.71C390.086 294.021 393.096 287.207 393.096 277.575C393.095 275.127 392.904 272.64 392.534 270.161Z" fill="#0F9D58"/>
<path d="M376.527 281.792C374.115 280.399 372.16 276.26 372.16 272.546C372.16 268.832 374.115 266.951 376.527 268.343C378.939 269.736 380.895 273.875 380.895 277.589C380.894 281.303 378.939 283.184 376.527 281.792ZM386.423 273.683C384.366 259.686 376.84 245.829 367.87 240.652C363.716 238.254 359.874 238.074 356.743 239.729C356.632 239.789 356.522 239.849 356.422 239.919C356.171 240.06 355.92 240.22 355.679 240.391C355.217 240.712 354.776 241.073 354.354 241.485C354.294 241.535 354.233 241.605 354.164 241.665C353.983 241.846 353.803 242.047 353.632 242.247C353.421 242.488 353.21 242.739 353.02 243C352.619 243.531 352.237 244.103 351.897 244.725C351.726 245.026 351.555 245.347 351.395 245.679C350.563 247.385 349.9 249.371 349.459 251.619L295.006 220.173V224.066L295.527 224.367L296.009 224.648V225.471L295.006 226.052V228.32L302.39 243.952L309.695 248.176L312.123 245.237L318.564 249.09L322.266 255.431L326.34 257.779L331.448 253.254L337.718 256.876L339.826 265.566L350.331 271.627C350.863 273.854 351.536 276.031 352.318 278.159C352.389 278.38 352.469 278.6 352.559 278.841C356.052 288.022 361.61 295.878 367.871 299.5C368.674 299.962 369.456 300.343 370.229 300.634C370.671 300.815 371.112 300.955 371.544 301.075C371.935 301.186 372.326 301.276 372.718 301.336C374.012 301.566 375.266 301.557 376.44 301.326C376.611 301.286 376.782 301.246 376.952 301.206C377.193 301.156 377.433 301.086 377.664 300.995C377.845 300.925 378.025 300.855 378.206 300.785C378.396 300.714 378.587 300.624 378.768 300.524C378.949 300.444 379.119 300.353 379.29 300.253C379.38 300.203 379.471 300.152 379.551 300.102C379.591 300.093 379.631 300.062 379.672 300.032C384.126 297.223 386.987 290.51 386.987 281.108C386.985 278.66 386.784 276.171 386.423 273.683Z" fill="#0F9D58"/>
<path opacity="0.4" d="M380.894 277.586C380.894 281.299 378.937 283.185 376.529 281.791C374.111 280.396 372.155 276.262 372.155 272.55C372.155 268.838 374.112 266.951 376.529 268.346C377.171 268.717 377.783 269.279 378.315 269.982C378.526 272.42 379.509 274.928 380.844 276.634C380.884 276.954 380.894 277.275 380.894 277.586Z" fill="#040A0A"/>
<path opacity="0.4" d="M393.095 277.576C393.095 287.208 390.085 294.022 385.439 296.711C384.506 297.243 381.065 299.229 379.67 300.032C384.124 297.223 386.985 290.51 386.985 281.108C386.985 278.66 386.784 276.172 386.423 273.684C384.366 259.687 376.84 245.83 367.87 240.653C363.716 238.255 359.874 238.074 356.743 239.73C358.107 238.947 361.569 236.95 362.502 236.408C365.693 234.542 369.677 234.632 373.981 237.121C382.951 242.299 390.476 256.155 392.534 270.162C392.904 272.64 393.095 275.127 393.095 277.576Z" fill="white"/>
<path d="M386.985 281.107C386.985 290.509 384.125 297.222 379.67 300.031C381.065 299.229 384.506 297.242 385.439 296.71C390.085 294.021 393.095 287.207 393.095 277.575C393.095 277.22 393.082 276.862 393.074 276.505C390.975 277.717 388.852 278.942 386.962 280.033C386.971 280.392 386.985 280.751 386.985 281.107Z" fill="#0F9D58"/>
<path opacity="0.1" d="M386.985 281.107C386.985 290.509 384.125 297.222 379.67 300.031C381.065 299.229 384.506 297.242 385.439 296.71C390.085 294.021 393.095 287.207 393.095 277.575C393.095 277.22 393.082 276.862 393.074 276.505C390.975 277.717 388.852 278.942 386.962 280.033C386.971 280.392 386.985 280.751 386.985 281.107Z" fill="#040A0A"/>
<path opacity="0.15" d="M349.679 255.632V257.619L295.006 226.052L296.009 225.47V224.648L349.679 255.632Z" fill="#040A0A"/>
<path opacity="0.15" d="M349.679 256.455V257.619L295.006 226.052L296.009 225.47V225.461L349.679 256.455Z" fill="#040A0A"/>
<path opacity="0.15" d="M375.793 295.912C383.415 293.573 386.045 280.114 381.668 265.851C377.291 251.589 367.563 241.923 359.941 244.262C352.319 246.601 349.689 260.06 354.066 274.322C358.444 288.585 368.171 298.251 375.793 295.912Z" stroke="#040A0A" stroke-miterlimit="10"/>
<path opacity="0.4" d="M351.395 245.679C350.563 247.385 349.9 249.371 349.459 251.619L295.006 220.173L301.116 216.651L351.395 245.679Z" fill="white"/>
<path d="M422.126 248.736C424.982 243.336 428.237 231.214 429.858 225.097C432.16 216.407 428.434 210.94 424.204 210.72C421.551 211.124 412.841 242.82 412.841 242.82C411.876 243.592 398.619 250.31 394.36 251.998C393.605 252.298 392.765 252.285 392.002 252.007C389.956 251.26 388.563 251.402 386.561 251.201C384.994 251.044 384.2 250.486 384.002 250.822C383.749 251.253 383.63 252.33 384.771 253.132C385.345 253.536 386.293 253.897 387.502 254.325C387.502 254.325 385.238 255.11 382.217 255.043C378.123 254.953 376.649 256.732 379.825 260.882C381.815 263.482 385.014 264.302 392.22 261.81C394.296 261.092 397.109 259.696 399.727 258.745C405.14 256.779 406.529 256.566 410.684 255.167C416.68 253.148 420.858 251.132 422.126 248.736Z" fill="#FFA8A7"/>
<path d="M422.599 209.897C425.09 210.238 427.505 210.801 428.953 212.814C430.401 214.826 431.609 217.664 430.16 225.461C428.712 233.257 425.732 241.539 425.732 241.539C425.732 241.539 419.939 244.015 413.775 237.734L418.007 221.358C418.007 221.358 418.731 210.719 422.599 209.897Z" fill="#455A64"/>
</svg>
